<svg id="svg" xmlns="http://www.w3.org/2000/svg" viewBox="0 0 213.3 151.3"><style>.st0{fill:none;stroke:#d7e9ff;stroke-width:1.6;stroke-linecap:round;stroke-miterlimit:10}.st1{fill:#4894ff}.st2{fill:#8fbeff}.st3{fill:#1f8ced}.st4,.st5{fill:none;stroke:#d7e9ff;stroke-width:2;stroke-linecap:round;stroke-miterlimit:10}.st5{stroke:#8fbeff;stroke-width:1.6}.st6,.st7,.st8{fill:none;stroke-width:2}.st6{stroke:#0069ff;stroke-linejoin:round}.st7,.st8{stroke-linecap:round}.st7{stroke-linejoin:round;stroke:#fff}.st8{stroke:#0069ff;stroke-miterlimit:10}.st10,.st11,.st9{fill:#d7e9ff;stroke:#d7e9ff;stroke-width:1.6}.st9{stroke-linecap:round;stroke-miterlimit:10}.st10,.st11{stroke-linejoin:round}.st11{fill:#4894ff;stroke:#4894ff}</style><path class="st0" d="M67.7 44.9l107.7 31.5M177.3 77.7l32.6-26.9M177.3 77.7l-7.5 24.2"/><ellipse transform="rotate(-26.878 210.866 50.704)" class="st1" cx="210.9" cy="50.7" rx="2.4" ry="2.4"/><ellipse transform="rotate(-1.281 169.821 101.873) scale(1.00005)" class="st2" cx="169.8" cy="101.9" rx="2.8" ry="2.8"/><ellipse transform="rotate(-54.269 67.728 44.342)" class="st1" cx="67.7" cy="44.3" rx="2.8" ry="2.8"/><ellipse transform="rotate(-54.269 177.417 77.571)" class="st2" cx="177.4" cy="77.6" rx="2.8" ry="2.8"/><ellipse transform="rotate(-54.269 117.108 99.976)" class="st3" cx="117.1" cy="100" rx="2.8" ry="2.8"/><path class="st4" d="M34.8 96.4C31.4 86.8 59.9 67.9 98.6 54s72.8-17.3 76.2-7.7"/><path class="st4" d="M47.8 90.7c-2.3-6.5 21.2-20.8 52.5-32s58.6-15 60.9-8.5"/><path class="st5" d="M39.1 120.7l24.6-34.5"/><path class="st0" d="M2.3 91.9l36.8 28.8 2.4 18.5"/><ellipse transform="rotate(-8.748 39.004 120.722)" class="st1" cx="39" cy="120.7" rx="2.7" ry="2.7"/><ellipse transform="rotate(-8.748 63.697 86.195)" class="st1" cx="63.7" cy="86.2" rx="2.7" ry="2.7"/><ellipse transform="rotate(-8.748 41.404 139.265)" class="st2" cx="41.4" cy="139.2" rx="2.7" ry="2.7"/><ellipse transform="rotate(-58.548 2.3 91.917)" class="st2" cx="2.3" cy="91.9" rx="2.3" ry="2.3"/><path class="st5" d="M148.1 124l-31-23.8"/><path class="st0" d="M150.4 125.7l35.8 9.5M150.4 125.7L132.1 148"/><ellipse transform="rotate(-77.549 186.222 135.221)" class="st1" cx="186.2" cy="135.2" rx="3.2" ry="3.2"/><ellipse transform="rotate(-51.954 132.098 148.029)" class="st2" cx="132.1" cy="148" rx="2.8" ry="2.8"/><ellipse transform="rotate(-54.269 150.363 125.573)" class="st1" cx="150.4" cy="125.6" rx="2.8" ry="2.8"/><path class="st1" d="M134.8 79.5c0 16.5-13.4 29.9-29.9 29.9S75 96.1 75 79.5c0-19.6 29.9-43.8 29.9-43.8s29.9 25.1 29.9 43.8z"/><path class="st2" d="M134.8 79.5c0 16.5-13.4 29.9-29.9 29.9-9 0-18.9-2-18.9-31.2 0-31.8 18.9-42.5 18.9-42.5s29.9 25.1 29.9 43.8z"/><path class="st6" d="M134.8 79.5c0 16.5-13.4 29.9-29.9 29.9S75 96.1 75 79.5c0-19.6 29.9-43.8 29.9-43.8s29.9 25.1 29.9 43.8z"/><path class="st7" d="M113.8 50.4c3.1 3.3 5.9 6.9 8.4 10.7M107.1 43.5l3.8 3.8"/><path class="st8" d="M174.8 46.3c3.4 9.6-25.2 28.5-63.8 42.3S38.2 106 34.8 96.4"/><path class="st8" d="M161.3 51.5c2.3 6.5-21.2 20.8-52.5 32s-58.6 15-60.9 8.5"/><path class="st0" d="M22.1 61l19.8-3.3v-15"/><circle class="st9" cx="22.1" cy="61" r="1.4"/><circle class="st9" cx="41.9" cy="42.7" r="1.4"/><circle class="st9" cx="81.7" cy="136.8" r="1.4"/><circle class="st9" cx="68.7" cy="149.1" r="1.4"/><circle class="st9" cx="75.2" cy="124" r="1.4"/><circle class="st9" cx="41.9" cy="57.8" r="1.4"/><path class="st0" d="M68.7 148.9l13-12.1-6.5-12.8"/><ellipse transform="rotate(-22.444 132.248 27.175)" class="st9" cx="132.3" cy="27.2" rx="1.4" ry="1.4"/><ellipse transform="rotate(-22.351 125.573 14.837)" class="st9" cx="125.6" cy="14.8" rx="1.4" ry="1.4"/><path class="st0" d="M133.2 27.6l-7.4-12.9"/><path class="st10" d="M90 6.6c-3.2 0-5.8-2.6-5.8-5.8 0 3.2-2.6 5.8-5.8 5.8 3.2 0 5.8 2.6 5.8 5.8 0-3.2 2.6-5.8 5.8-5.8z"/><circle class="st11" cx="180.2" cy="26.2" r="1.2"/><circle class="st11" cx="14.4" cy="128.4" r="1.2"/><circle class="st11" cx="107.1" cy="132.5" r="1.2"/></svg>