<svg id="svg" xmlns="http://www.w3.org/2000/svg" viewBox="0 0 199.4 151.6"><style>.st0{fill:#dfeffd}.st1,.st2{fill:none;stroke:#d7e9ff;stroke-width:2;stroke-linecap:round;stroke-miterlimit:10}.st2{stroke:#8fbeff;stroke-width:1.6}.st3{fill:#4894ff}.st4{fill:#8fbeff}.st5,.st6{stroke-width:2;stroke-linejoin:round}.st5{fill:none;stroke-linecap:round;stroke:#0069ff}.st6{stroke:#fff}.st6,.st7,.st8{fill:none;stroke-linecap:round}.st7{stroke-miterlimit:10;stroke:#0069ff;stroke-width:2}.st8{stroke:#8fbeff;stroke-width:1.6;stroke-linejoin:round}.st10,.st11,.st12,.st9{fill:#d7e9ff;stroke:#d7e9ff;stroke-width:1.6}.st9{stroke-miterlimit:10}.st10,.st11,.st12{stroke-linejoin:round}.st11,.st12{fill:#4894ff;stroke:#4894ff}.st12{fill:#8fbeff;stroke:#8fbeff}</style><path class="st0" d="M10 54.9c2.2-1.8 4.6-3.4 7.1-4.8 6.5-3.9 13.3-7.2 20.3-9.8 10-3.8 20.2-6.7 30.7-8.5 5.8-1 11.8-1.8 17.9-2.3 1.5-.1 3-.2 4.6-.3l4.6-.2c3.1-.1 6.2-.2 9.3-.1 6.2 0 12.5.1 18.6.6 6.1.4 12.2 1.1 18 2 5.6.9 11.1 2.2 16.6 4 4.9 1.6 9.7 3.6 14.1 6.3 3.9 2.3 7.4 5.1 10.3 8.5 2.3 2.7 4.1 5.7 5.3 9.1.8 2.2 1.3 4.4 1.5 6.7.1.8.1 1.4.1 1.8v.6c.1 1.4-1 2.6-2.4 2.6-1.4.1-2.6-1-2.6-2.4V68c0-.3 0-.8-.1-1.5-.1-1.9-.5-3.8-1.1-5.6-.9-2.8-2.4-5.5-4.3-7.8-2.5-3.1-5.6-5.7-9-7.9-4.1-2.6-8.5-4.7-13.1-6.3-5.2-1.8-10.5-3.2-15.9-4.3-5.6-1.1-11.6-1.9-17.6-2.5-6-.6-12.2-.9-18.4-1.1-12.1-.3-24.2.4-36.2 2.4C58 35 47.7 37.6 37.8 41.3c-7 2.5-13.8 5.7-20.3 9.4-2.3 1.4-4.1 2.5-5.3 3.4s-1.8 1.3-1.8 1.3c-.1.1-.3.1-.4-.1-.1-.1-.1-.3 0-.4zM199.4 87.5c-2 3-4.2 5.8-6.7 8.4-2.8 3-5.8 5.8-9 8.4-4.1 3.4-8.5 6.5-13.1 9.2-5.5 3.2-11.2 6-17.1 8.3-6.6 2.6-13.4 4.6-20.4 6-7.4 1.5-15 2.5-22.5 2.9-1.9.2-3.9.2-5.8.2-1 0-1.9.1-2.9.1H99c-4-.1-7.9-.3-11.8-.7-7.8-.7-15.6-2-23.2-3.9-7.4-1.8-14.7-4.3-21.7-7.5-3.4-1.5-6.6-3.3-9.7-5.3-3-1.9-5.9-4.1-8.4-6.6-2.6-2.5-4.6-5.4-6.1-8.6-.7-1.6-1.2-3.3-1.5-5-.2-1.7-.2-3.4 0-5.1.2-1.6.7-3.2 1.3-4.6.3-.7.6-1.4 1-2l.6-1 .6-.9c1.5-2.2 3.3-4.2 5.3-6 3.2-2.7 6.7-5.1 10.4-7.1 2.3-1.2 4.8-2.4 7.2-3.4l2.6-1 .1.2-2.4 1.6-2.9 1.9c-1.1.7-2.3 1.6-3.7 2.6-.7.5-1.4 1-2.1 1.6-.7.6-1.5 1.2-2.3 1.8-1.7 1.3-3.2 2.8-4.7 4.4-1.6 1.6-3.1 3.5-4.3 5.6-1.3 2.1-2.1 4.5-2.4 7-.1 1.3-.1 2.5.2 3.8.3 1.3.7 2.6 1.3 3.8 1.3 2.6 3.1 5 5.2 7.1 4.5 4.4 10.4 8 16.8 11 6.7 3 13.6 5.5 20.7 7.2 7.4 1.9 14.9 3.2 22.5 4 3.8.4 7.6.7 11.4.8.9 0 1.9 0 2.9.1s1.9 0 2.8 0c1.9 0 3.8 0 5.7-.1 7.4-.2 14.8-1 22-2.4 6.8-1.2 13.5-3 20-5.3 5.9-2.1 11.5-4.6 17-7.5 4.6-2.5 9.1-5.3 13.3-8.4 3.3-2.4 6.4-5 9.3-7.8 1.9-1.8 3.7-3.7 5.4-5.7 1.2-1.4 1.7-2.2 1.7-2.2l.3.1z"/><path class="st1" d="M84.5 43.3S64.6 48 57.3 54"/><path class="st2" d="M134.8 23.7l3 .6M105.9 22c8.1-.4 16.2-.1 24.2.9"/><path class="st3" d="M140.3 73.7c.3 20.3-15.8 36.9-36.1 37.3-20.3.3-36.9-15.8-37.3-36.1v-1.2c0-24.1 36.7-53.7 36.7-53.7s36.7 30.7 36.7 53.7z"/><path class="st4" d="M140.3 73.7c0 20.3-16.4 36.7-36.7 36.7-11.1 0-23.2-2.4-23.2-38.3 0-39 23.2-52.1 23.2-52.1s36.7 30.7 36.7 53.7z"/><path class="st5" d="M128.8 100.3c-14.7 13.9-37.9 13.3-51.9-1.3-6.5-6.8-10.1-15.9-10.1-25.3 0-24.1 36.7-53.7 36.7-53.7s36.7 30.7 36.7 53.7c0 4.9-1 9.7-2.9 14.3"/><path class="st6" d="M114.5 37.9c3.7 4.1 7.2 8.5 10.3 13.1M106.3 29.5c1.4 1.4 3 2.9 4.6 4.6"/><path class="st7" d="M155.1 52.4c-8.7-6.4-20.4-9.1-20.4-9.1M52 88.8c7.4 4.8 21.7 10.5 48.2 10.5 41.7 0 64.2-17.1 64.2-31.3 0-3.1-.9-6.1-2.6-8.7M44.9 82c.7 1.2 1.7 2.3 2.7 3.2M57.2 54c-5.6 4.5-7.6 11.6 6.4 16.7 6.3 2.3 24.3 5 40.3 4.1M103.9 74.8c36.9-2.7 52.7-11.4 58.4-24.9"/><path class="st8" d="M171.7 73.8c.3-1.2.5-2.4.6-3.7M152.1 96.8c8-4.3 14.4-10.4 17.8-17.6"/><path class="st2" d="M69.5 80.9c-10.9 0-20.7-8.2-21.9-12.5"/><ellipse class="st9" cx="103.6" cy="147.2" rx="21.9" ry="3.6"/><path class="st10" d="M85.6 7.9c-3.9 0-7.1-3.2-7.1-7.1 0 3.9-3.2 7.1-7.1 7.1 3.9 0 7.1 3.2 7.1 7.1 0-4 3.2-7.1 7.1-7.1zM44.9 134.8c-3.9 0-7.1-3.2-7.1-7.1 0 3.9-3.2 7.1-7.1 7.1 3.9 0 7.1 3.2 7.1 7.1 0-3.9 3.2-7.1 7.1-7.1z"/><circle class="st11" cx="169.8" cy="23" r="1.5"/><circle class="st12" cx="2.3" cy="83.6" r="1.5"/><circle class="st10" cx="185.4" cy="83.6" r="1.5"/><circle class="st10" cx="72.1" cy="111.4" r="1.5"/><circle class="st11" cx="155.1" cy="133.3" r="1.5"/></svg>