<svg id="svg" xmlns="http://www.w3.org/2000/svg" viewBox="0 0 125.4 151.6"><style>.st0{fill:#fff;stroke:#4894ff;stroke-width:1.6;stroke-linejoin:round}.st1{fill:#d7e9ff}.st2,.st3,.st4{fill:#8fbeff;stroke:#0069ff;stroke-width:2;stroke-miterlimit:10}.st3,.st4{fill:#d7e9ff;stroke:#4894ff;stroke-width:1.6}.st4{stroke:#d7e9ff}.st5{fill:#4894ff}.st6{fill:#8fbeff}.st7,.st8,.st9{fill:#0069ff;stroke:#0069ff;stroke-width:2;stroke-linejoin:round}.st8,.st9{fill:none;stroke:#fff;stroke-linecap:round}.st9{stroke:#0069ff}.st10{fill:#fff}.st11,.st12{fill:none;stroke:#d7e9ff;stroke-width:1.6;stroke-linejoin:round}.st12{fill:#d7e9ff;stroke:#4894ff}.st13{fill:none;stroke:#0069ff;stroke-width:2;stroke-linecap:round;stroke-miterlimit:10}.st14{fill:#8fbeff;stroke:#8fbeff}.st14,.st15,.st16,.st17{stroke-width:1.6;stroke-linejoin:round}.st15{fill:#4894ff;stroke:#4894ff}.st16{fill:#0069ff;stroke:#0069ff}.st17{fill:#d7e9ff;stroke:#d7e9ff}</style><path class="st0" d="M66.3 72.6l4.3-10.7H54.8L59 72.6z"/><path class="st1" d="M71.6 62.2c-6.1 2.1-12.1 2.3-17.8 0L1 23.3h123.4L71.6 62.2z"/><ellipse class="st2" cx="62.7" cy="23" rx="61.7" ry="4.2"/><path class="st3" d="M70.6 61.7v.2c-.4 1.1-3.8 2-7.9 2-4.4 0-7.9-1-7.9-2.2 0-1.2 3.5-2.2 7.9-2.2s7.9 1 7.9 2.2z"/><ellipse class="st4" cx="30.1" cy="148.7" rx="12.6" ry="2.1"/><path class="st5" d="M52 116.7c0 11.6-9.4 21.1-21.1 21.1s-21.1-9.4-21.1-21.1c0-13.8 21.1-30.9 21.1-30.9S52 103.5 52 116.7z"/><path class="st6" d="M52 116.7c0 11.6-9.4 21.1-21.1 21.1-6.4 0-13.3-1.4-13.3-22 0-22.4 13.3-29.9 13.3-29.9S52 103.5 52 116.7z"/><path class="st6" d="M30.9 85.8s-11.8 9.5-17.7 20.1h35.3c-6-10.4-17.6-20.1-17.6-20.1z"/><path class="st1" d="M48.5 105.9c-6-10.4-17.6-20.1-17.6-20.1s-9.3 5.3-12.4 20.1h30z"/><ellipse class="st7" cx="30.8" cy="105.1" rx="16.3" ry="2.1"/><path class="st8" d="M36.4 96.1c2.2 2.4 4.1 4.9 5.9 7.5M31.7 91.3c.8.8 1.7 1.7 2.7 2.6"/><path class="st9" d="M42.7 97.8c4.8 5.8 9.3 12.8 9.3 18.9 0 11.6-9.4 21.1-21.1 21.1s-21.1-9.4-21.1-21.1c0-13.8 21.1-30.9 21.1-30.9s2.9 2.4 6.5 6.1"/><ellipse class="st4" cx="87.1" cy="148.7" rx="12.6" ry="2.1"/><path class="st1" d="M114.5 132.7c-3.6 11.1-15.4 17.2-26.5 13.6s-17.2-15.4-13.6-26.5c.1-.2.1-.4.2-.5 4.4-13.1 29.8-22.6 29.8-22.6s14.3 23.4 10.1 36z"/><path class="st10" d="M114.5 132.7c-3.7 11-15.6 17-26.7 13.3-6-2-12.2-5.6-5.6-25.1 7.1-21.3 22.1-24.2 22.1-24.2s14.4 23.4 10.2 36z"/><path class="st11" d="M114.5 132.7c-3.6 11.1-15.4 17.2-26.5 13.6s-17.2-15.4-13.6-26.5c.1-.2.1-.4.2-.5 4.4-13.1 29.8-22.6 29.8-22.6s14.3 23.4 10.1 36z"/><path class="st0" d="M66.3 72.6c.7-1.9-.2-3.9-2.1-4.6-1.3-.5-2.8-.2-3.8.8L42.2 87.1l5.1 5.1 18.3-18.3c.3-.4.6-.8.7-1.3z"/><ellipse transform="rotate(-45.001 44.68 89.626)" class="st12" cx="44.7" cy="89.6" rx="3.6" ry="3.6"/><path class="st13" d="M36.6 49.5L1 23.3m45.3 33.4l-6.5-4.8M111.2 33L80.6 55.5m43.8-32.2L114 31"/><circle class="st14" cx="52" cy="51.9" r=".9"/><circle class="st14" cx="58.6" cy="37.9" r=".9"/><circle class="st14" cx="78.5" cy="43.6" r=".9"/><circle class="st14" cx="95.9" cy="33" r=".9"/><circle class="st14" cx="87.9" cy="13.8" r=".9"/><circle class="st14" cx="36.4" cy="12.1" r=".9"/><circle class="st14" cx="64.7" cy="59.5" r=".9"/><circle class="st14" cx="51.1" cy="83.2" r=".9"/><circle class="st14" cx="35.1" cy="102.2" r=".9"/><circle class="st15" cx="24.5" cy="127.2" r=".9"/><circle class="st15" cx="44.7" cy="121.1" r=".9"/><circle class="st16" cx="14" cy="116.8" r=".9"/><circle class="st15" cx="34.3" cy="116.1" r=".9"/><circle class="st14" cx="23.6" cy="33" r=".9"/><circle class="st17" cx="73" cy="22.3" r=".9"/><circle class="st17" cx="57.8" cy="76.5" r=".9"/><circle class="st17" cx="48.5" cy="1.7" r=".9"/></svg>