<svg id="Layer_1" xmlns="http://www.w3.org/2000/svg" viewBox="0 0 196.5 155"><style>.st0{fill:none;stroke:#8fbeff;stroke-width:1.6;stroke-linecap:round;stroke-linejoin:round;stroke-miterlimit:10}.st1{fill:#4894ff}.st2{fill:#8fbeff}.st3,.st4{fill:none;stroke:#0069ff;stroke-width:2;stroke-linejoin:round;stroke-miterlimit:10}.st4{stroke:#fff;stroke-linecap:round}.st5{fill:#0069ff;stroke:#0069ff}.st5,.st6,.st7{stroke-miterlimit:10}.st6{stroke-width:2.065;fill:#8fbeff;stroke:#0069ff}.st7{fill:#d7e9ff;stroke:#d7e9ff;stroke-linejoin:round}.st7,.st8,.st9{stroke-width:1.6}.st8{stroke-linejoin:round;stroke-miterlimit:10;fill:#8fbeff;stroke:#8fbeff}.st9{fill:#d7e9ff;stroke:#fff}.st10,.st11,.st9{stroke-linejoin:round;stroke-miterlimit:10}.st10{fill:#0069ff;stroke:#0069ff;stroke-width:2}.st11{stroke:#8fbeff;stroke-width:1.6}.st11,.st12{fill:#d7e9ff}.st13,.st14,.st15{stroke:#0069ff}.st13,.st14,.st15,.st16,.st17,.st18{stroke-linejoin:round;stroke-miterlimit:10}.st13{stroke-linecap:round;fill:none;stroke-width:2}.st14{fill:#0069ff;stroke-width:1.9896}.st15{fill:none;stroke-width:4}.st16{fill:#0069ff;stroke:#8fbeff;stroke-width:1.6}.st17{fill:#8fbeff;stroke:#0069ff;stroke-width:2}.st18{fill:none;stroke:#fff;stroke-width:1.6;stroke-linecap:round}</style><path class="st0" d="M147.5 152.4h39.6m-142.4 0h96.4m-130.7 0h28.4"/><path class="st1" d="M66.3 60.5C66.3 75.7 54 88 38.8 88S11.3 75.7 11.3 60.5c0-18 27.5-40.2 27.5-40.2s27.5 23 27.5 40.2z"/><path class="st2" d="M66.3 60.5C66.3 75.7 54 88 38.8 88c-8.3 0-17.4-1.8-17.4-28.7 0-29.2 17.4-39 17.4-39s27.5 23 27.5 40.2z"/><path class="st3" d="M66.3 60.5C66.3 75.7 54 88 38.8 88S11.3 75.7 11.3 60.5c0-18 27.5-40.2 27.5-40.2s27.5 23 27.5 40.2z"/><path class="st4" d="M47 33.7c2.7 2.9 5.4 6.3 7.7 9.8M40.9 27.4c1.1 1 2.2 2.2 3.5 3.5"/><path class="st5" d="M17.7 138.8h13.8v13.8H17.7zm149.1 0h13.8v13.8h-13.8z"/><path class="st6" d="M116.9 129.7H80.5v-41c0-9.9 8-17.9 17.9-17.9h.6c9.9 0 17.9 8 17.9 17.9v41z"/><path class="st7" d="M71.2 26.3c-2.8 0-5-2.2-5-5 0 2.8-2.2 5-5 5 2.8 0 5 2.2 5 5 0-2.7 2.3-5 5-5zM12.5 88c-2.8 0-5-2.2-5-5 0 2.8-2.2 5-5 5 2.8 0 5 2.2 5 5 0-2.8 2.3-5 5-5z"/><circle class="st8" cx="192.4" cy="74.1" r="1.1"/><circle class="st8" cx="59.3" cy="91" r="1.1"/><path class="st7" d="M141.9 7.8c-2.8 0-5-2.2-5-5 0 2.8-2.2 5-5 5 2.8 0 5 2.2 5 5 0-2.8 2.3-5 5-5z"/><circle class="st8" cx="127.9" cy="24.3" r="1.1"/><circle class="st9" cx="98.7" cy="88.5" r="11.6"/><path class="st10" d="M11.2 138.9v4.5h175v-4.6z"/><path class="st5" d="M42.6 123.9H35c-1.7 0-3.1-1.4-3.1-3.1v-10.7h13.8v10.7c0 1.7-1.4 3.1-3.1 3.1zm120.6-9h-7.6c-1.7 0-3.1-1.4-3.1-3.1V101h13.8v10.7c0 1.8-1.4 3.2-3.1 3.2z"/><path class="st11" d="M57.1 110.1l9.1-9.1H11.3l9.1 9.1z"/><path class="st8" d="M20.4 110.2l-2.3-2.3h41.3l-2.3 2.3z"/><path class="st1" d="M186.7 50.4c0 15.2-12.3 27.5-27.5 27.5s-27.5-12.3-27.5-27.5c0-18 27.5-40.2 27.5-40.2s27.5 22.9 27.5 40.2z"/><path class="st2" d="M186.7 50.4c0 15.2-12.3 27.5-27.5 27.5-8.3 0-17.4-1.8-17.4-28.7 0-29.2 17.4-39 17.4-39s27.5 22.9 27.5 40.2z"/><path class="st2" d="M159.3 10.2S144 22.6 136.2 36.4h46c-7.8-13.6-22.9-26.2-22.9-26.2z"/><path class="st12" d="M182.2 36.3c-7.8-13.6-22.9-26.2-22.9-26.2s-12.1 6.9-16.1 26.2h39z"/><ellipse class="st10" cx="159.2" cy="35.2" rx="21.2" ry="2.7"/><path class="st4" d="M166.4 23.6c2.7 2.9 5.4 6.3 7.7 9.8m-13.8-16.1c1.1 1 2.2 2.2 3.5 3.5"/><path class="st13" d="M167.7 18.1c-4.7-4.8-8.4-7.9-8.4-7.9s-27.5 22.2-27.5 40.2c0 15.2 12.3 27.5 27.5 27.5s27.5-12.3 27.5-27.5c0-7.9-5.8-17.1-12.1-24.6l-7-7.7z"/><path class="st15" d="M116.9 111.3l36.7-3.4M43.6 118l36.9-3.4"/><path class="st13" d="M98.7 88.5L93.2 83"/><ellipse transform="rotate(-56.441 98.71 88.511)" class="st16" cx="98.7" cy="88.5" rx="2.3" ry="2.3"/><path class="st11" d="M141 100.1l-9.1-9.1h54.9l-9.1 9.1z"/><path class="st8" d="M141 100.2l-2.2-2.3H180l-2.3 2.3z"/><path class="st17" d="M20.3 129.7l-9.1 9.1h175l-9.1-9.1z"/><path class="st18" d="M164.1 111.5c0 .7-.6 1.4-1.4 1.4m-119.1 7.8c0 .7-.6 1.4-1.4 1.4"/></svg>