<svg xmlns="http://www.w3.org/2000/svg" xmlns:xlink="http://www.w3.org/1999/xlink" viewBox="0 0 1770 900"><defs><style>.cls-1{fill:none}.cls-9{fill:#111032}.cls-5{fill:#00d6ff}.cls-6{fill:#0069ff}.cls-7{fill:#5fa8ff}.cls-10{fill:#0000c7}.cls-14{fill:#b3dbff}.cls-26{fill:#120078}.cls-28{fill:#fff}.cls-29{fill:#f0f5ff}.cls-62{fill:#f5f9ff}.cls-66{fill:#8fc6ff}</style><linearGradient id="linear-gradient" x1="339.13" y1="5895.93" x2="873.35" y2="5895.93" gradientTransform="matrix(1 -.03 -.03 -1 494.2 6453.94)" gradientUnits="userSpaceOnUse"><stop offset="0" stop-color="#b3dbff" stop-opacity=".07"/><stop offset=".51" stop-color="#b3dbff" stop-opacity=".2"/><stop offset="1" stop-color="#b3dbff" stop-opacity=".08"/></linearGradient><linearGradient id="linear-gradient-2" x1="1682.42" y1="5929.3" x2="1690.86" y2="5936.38" gradientTransform="matrix(.98 -.22 -.22 -.98 637.96 6532.8)" gradientUnits="userSpaceOnUse"><stop offset="0" stop-color="#b3dbff"/><stop offset="1" stop-color="#5fa8ff" stop-opacity=".4"/></linearGradient><linearGradient id="linear-gradient-3" x1="482.17" y1="6104.68" x2="556.47" y2="6104.68" gradientTransform="matrix(1 0 0 -1 483.99 6443.17)" gradientUnits="userSpaceOnUse"><stop offset="0" stop-color="#5fa8ff"/><stop offset="1" stop-color="#5fa8ff" stop-opacity=".4"/></linearGradient><linearGradient id="linear-gradient-4" x1="477.34" y1="6055.78" x2="498.3" y2="6055.78" gradientTransform="matrix(1 0 0 -1 483.99 6443.17)" gradientUnits="userSpaceOnUse"><stop offset="0" stop-color="#8fc6ff"/><stop offset="1" stop-color="#5fa8ff"/></linearGradient><linearGradient id="linear-gradient-5" x1="445.03" y1="5961.29" x2="445.03" y2="6089.24" gradientTransform="matrix(1 0 0 -1 483.99 6443.17)" gradientUnits="userSpaceOnUse"><stop offset="0" stop-color="#5fa8ff" stop-opacity="0"/><stop offset=".51" stop-color="#5fa8ff" stop-opacity=".8"/><stop offset="1" stop-color="#5fa8ff" stop-opacity=".4"/></linearGradient><linearGradient id="linear-gradient-6" x1="411.88" y1="5957.63" x2="440.78" y2="5957.63" gradientTransform="matrix(1 0 0 -1 483.99 6443.17)" gradientUnits="userSpaceOnUse"><stop offset="0" stop-color="#120078"/><stop offset="1" stop-color="#120078"/></linearGradient><linearGradient id="linear-gradient-7" x1="526" y1="6069.55" x2="475.86" y2="6069.55" gradientTransform="matrix(1 0 0 -1 483.99 6443.17)" gradientUnits="userSpaceOnUse"><stop offset="0" stop-color="#2a39dd"/><stop offset=".28" stop-color="#2449e7"/><stop offset="1" stop-color="#1670ff"/></linearGradient><linearGradient id="linear-gradient-8" x1="548.47" y1="6117.52" x2="623.25" y2="6117.52" xlink:href="#linear-gradient-4"/><linearGradient id="linear-gradient-9" x1="449.04" y1="6122.74" x2="473.59" y2="6122.74" gradientTransform="matrix(1 0 0 -1 483.99 6443.17)" gradientUnits="userSpaceOnUse"><stop offset="0" stop-color="aqua" stop-opacity=".5"/><stop offset="1" stop-color="aqua" stop-opacity=".1"/></linearGradient><linearGradient id="linear-gradient-10" x1="469.8" y1="6089.19" x2="453.38" y2="6089.19" gradientTransform="matrix(1 0 0 -1 483.99 6443.17)" gradientUnits="userSpaceOnUse"><stop offset="0" stop-color="#1900ba" stop-opacity=".2"/><stop offset="1" stop-color="#1900ba" stop-opacity="0"/></linearGradient><linearGradient id="linear-gradient-11" x1="443.05" y1="6091.93" x2="455.39" y2="6102.28" gradientTransform="matrix(1 .01 .01 -1 478.64 6440.24)" xlink:href="#linear-gradient-2"/><linearGradient id="linear-gradient-12" x1="608.99" y1="6142.53" x2="547.06" y2="6142.53" gradientTransform="matrix(1 0 0 -1 483.99 6443.17)" gradientUnits="userSpaceOnUse"><stop offset=".42" stop-color="#2a39dd"/><stop offset=".58" stop-color="#2449e7"/><stop offset="1" stop-color="#1670ff"/></linearGradient><linearGradient id="linear-gradient-13" x1="169.86" y1="6093.75" x2="183.39" y2="6093.75" gradientTransform="matrix(1 .06 .06 -1 447.83 6416.89)" gradientUnits="userSpaceOnUse"><stop offset="0" stop-color="#5fa8ff" stop-opacity=".9"/><stop offset="1" stop-color="#5fa8ff" stop-opacity=".2"/></linearGradient><linearGradient id="linear-gradient-14" x1="543.67" y1="6222.44" x2="597.9" y2="6222.44" gradientTransform="matrix(1 0 0 -1 483.99 6443.17)" gradientUnits="userSpaceOnUse"><stop offset="0" stop-color="#120078"/><stop offset=".42" stop-color="#120759"/><stop offset="1" stop-color="#111032"/></linearGradient><linearGradient id="linear-gradient-15" x1="571.37" y1="6180.97" x2="614.15" y2="6180.97" xlink:href="#linear-gradient-14"/><linearGradient id="linear-gradient-16" x1="611.21" y1="6130.05" x2="552.69" y2="6130.05" xlink:href="#linear-gradient-7"/><linearGradient id="linear-gradient-17" x1="580.69" y1="6079.99" x2="580.69" y2="6168.53" gradientTransform="matrix(1 0 0 -1 483.99 6443.17)" gradientUnits="userSpaceOnUse"><stop offset=".29" stop-color="#1900ba" stop-opacity=".3"/><stop offset="1" stop-color="#1900ba" stop-opacity="0"/></linearGradient><linearGradient id="linear-gradient-18" x1="576.65" y1="6191.48" x2="584.51" y2="6191.48" xlink:href="#linear-gradient-10"/><linearGradient id="linear-gradient-19" x1="550.01" y1="6209.7" x2="587.1" y2="6209.7" xlink:href="#linear-gradient-10"/><linearGradient id="linear-gradient-20" x1="454.78" y1="6052.44" x2="442.17" y2="6052.44" gradientTransform="matrix(1 0 0 -1 483.99 6443.17)" gradientUnits="userSpaceOnUse"><stop offset="0" stop-color="#1900ba" stop-opacity=".1"/><stop offset="1" stop-color="#1900ba" stop-opacity="0"/></linearGradient><linearGradient id="linear-gradient-21" x1="210.46" y1="5906.73" x2="403.25" y2="5906.73" gradientTransform="matrix(1 0 0 -1 483.99 6443.17)" gradientUnits="userSpaceOnUse"><stop offset=".39" stop-color="#0000c7"/><stop offset=".69" stop-color="#09009f"/><stop offset="1" stop-color="#120078"/></linearGradient><linearGradient id="linear-gradient-22" x1="-124.67" y1="5898.59" x2="-163.3" y2="5898.59" gradientTransform="matrix(.99 .1 .1 -.99 452.22 6402.73)" xlink:href="#linear-gradient-14"/><linearGradient id="linear-gradient-23" x1="458.81" y1="5851.42" x2="458.81" y2="5866.27" xlink:href="#linear-gradient-14"/><linearGradient id="linear-gradient-24" x1="361.59" y1="5944.88" x2="361.59" y2="5932.48" gradientTransform="matrix(1 0 0 -1 483.99 6443.17)" gradientUnits="userSpaceOnUse"><stop offset="0" stop-color="#0000c7"/><stop offset="1" stop-color="#120078" stop-opacity="0"/></linearGradient><linearGradient id="linear-gradient-25" x1="360.82" y1="5974.59" x2="289.16" y2="5974.59" gradientTransform="matrix(1 0 0 -1 483.99 6443.17)" gradientUnits="userSpaceOnUse"><stop offset=".11" stop-color="#111032" stop-opacity=".5"/><stop offset=".68" stop-color="#1900ba" stop-opacity="0"/></linearGradient><linearGradient id="linear-gradient-26" x1="290.01" y1="6052.5" x2="290.01" y2="5998.38" gradientTransform="matrix(1 0 0 -1 483.99 6443.17)" gradientUnits="userSpaceOnUse"><stop offset=".26" stop-color="#00d6ff"/><stop offset="1" stop-color="#03b1d8"/></linearGradient><linearGradient id="linear-gradient-27" x1="248.52" y1="6066.32" x2="248.52" y2="5926.23" xlink:href="#linear-gradient-26"/><linearGradient id="linear-gradient-28" x1="313.38" y1="6061.56" x2="325.79" y2="6061.56" xlink:href="#linear-gradient-14"/><linearGradient id="linear-gradient-29" x1="285.32" y1="6049.16" x2="285.32" y2="6029.26" gradientTransform="matrix(1 0 0 -1 483.99 6443.17)" gradientUnits="userSpaceOnUse"><stop offset="0" stop-color="#68e3ff"/><stop offset=".69" stop-color="#c9f0ff"/><stop offset="1" stop-color="#f0f5ff"/></linearGradient><linearGradient id="linear-gradient-30" x1="266.94" y1="6066.3" x2="266.94" y2="6029.28" xlink:href="#linear-gradient-29"/><linearGradient id="linear-gradient-31" x1="387.1" y1="5994.43" x2="308.56" y2="5994.43" gradientTransform="matrix(1 0 0 -1 511 6493)" gradientUnits="userSpaceOnUse"><stop offset="0" stop-color="#f5f9ff"/><stop offset=".39" stop-color="#daedff"/><stop offset="1" stop-color="#b3dbff"/></linearGradient><linearGradient id="linear-gradient-32" x1="332.44" y1="5979.23" x2="363.18" y2="5979.23" gradientTransform="matrix(1 0 0 -1 483.99 6443.17)" xlink:href="#linear-gradient-31"/><linearGradient id="linear-gradient-33" x1="392.49" y1="5973.82" x2="386.14" y2="5984.82" gradientTransform="matrix(.34 .94 .94 -.34 -4889.89 2103.86)" gradientUnits="userSpaceOnUse"><stop offset="0" stop-color="#f0f5ff"/><stop offset="1" stop-color="#c3e1ff"/></linearGradient><linearGradient id="linear-gradient-34" x1="280.1" y1="6018.23" x2="280.1" y2="6079.17" gradientTransform="matrix(1 0 0 -1 483.99 6443.17)" gradientUnits="userSpaceOnUse"><stop offset="0" stop-color="#111032" stop-opacity=".5"/><stop offset="1" stop-color="#111032" stop-opacity="0"/></linearGradient><linearGradient id="linear-gradient-35" x1="319.23" y1="6083.92" x2="319.23" y2="6066.32" xlink:href="#linear-gradient-34"/><linearGradient id="linear-gradient-36" x1="512.96" y1="5905.13" x2="512.96" y2="6007.79" gradientTransform="matrix(1 0 0 -1 511 6493)" gradientUnits="userSpaceOnUse"><stop offset="0" stop-color="#0000c7"/><stop offset=".49" stop-color="#09009f"/><stop offset="1" stop-color="#120078"/></linearGradient><linearGradient id="linear-gradient-37" x1="1085.23" y1="5835.03" x2="1085.23" y2="5941.34" gradientTransform="rotate(-174.23 950.595 3206.87)" xlink:href="#linear-gradient-36"/><linearGradient id="linear-gradient-38" x1="604.01" y1="5865.34" x2="604.01" y2="5968" gradientTransform="rotate(180 860.845 3221.585)" xlink:href="#linear-gradient-36"/><linearGradient id="linear-gradient-39" x1="633.15" y1="6013.23" x2="490.36" y2="6013.23" gradientTransform="matrix(1 0 0 -1 511 6493)" gradientUnits="userSpaceOnUse"><stop offset="0" stop-color="#8fc6ff"/><stop offset="1" stop-color="#b3dbff"/></linearGradient><linearGradient id="linear-gradient-40" x1="493.82" y1="5966.23" x2="435.81" y2="5966.23" gradientTransform="matrix(1 0 0 -1 511 6493)" gradientUnits="userSpaceOnUse"><stop offset="0" stop-color="#f5f9ff"/><stop offset="1" stop-color="#cae6ff"/></linearGradient><linearGradient id="linear-gradient-41" x1="606.04" y1="5975.04" x2="643.01" y2="5975.04" xlink:href="#linear-gradient-7"/><linearGradient id="linear-gradient-42" x1="597.52" y1="6040.59" x2="597.52" y2="6048.8" gradientTransform="matrix(1 0 0 -1 511 6493)" gradientUnits="userSpaceOnUse"><stop offset="0" stop-color="#111032"/><stop offset="1" stop-color="#111032" stop-opacity=".2"/></linearGradient><clipPath id="clip-path"><path class="cls-1" d="M1045.18,340.42V448.23h44.67c0,2.27,8.31,4.11,18.52,4.11s18.51-1.84,18.51-4.11H1163V340.42Z"/></clipPath><linearGradient id="linear-gradient-43" x1="654.68" y1="6005.99" x2="620.85" y2="6039.84" gradientTransform="matrix(1 0 0 -1 483.99 6443.17)" gradientUnits="userSpaceOnUse"><stop offset=".21" stop-color="#1900ba" stop-opacity=".2"/><stop offset="1" stop-color="#1900ba" stop-opacity="0"/></linearGradient><linearGradient id="linear-gradient-44" x1="651.23" y1="6011.28" x2="597.27" y2="6065.23" xlink:href="#linear-gradient-43"/><linearGradient id="linear-gradient-45" x1="628.1" y1="5996.06" x2="596.42" y2="6027.74" xlink:href="#linear-gradient-43"/><linearGradient id="linear-gradient-46" x1="577.73" y1="5996.22" x2="579.88" y2="5996.22" gradientTransform="matrix(1 0 0 -1 511 6493)" gradientUnits="userSpaceOnUse"><stop offset="0" stop-color="#3a89ff"/><stop offset="1" stop-color="#03b1d8"/></linearGradient><linearGradient id="linear-gradient-47" x1="516.13" y1="6014.42" x2="579.72" y2="6014.42" gradientTransform="matrix(1 0 0 -1 511 6493)" gradientUnits="userSpaceOnUse"><stop offset=".04" stop-color="#5fa8ff"/><stop offset="1" stop-color="#03b1d8"/></linearGradient><linearGradient id="linear-gradient-48" x1="516.33" y1="6009.26" x2="579.92" y2="6009.26" xlink:href="#linear-gradient-47"/><linearGradient id="linear-gradient-49" x1="516.33" y1="6011.91" x2="542.75" y2="6011.91" gradientTransform="matrix(1 0 0 -1 511 6493)" gradientUnits="userSpaceOnUse"><stop offset="0" stop-color="#f5f9ff"/><stop offset="1" stop-color="#b3dbff"/></linearGradient><linearGradient id="linear-gradient-50" x1="92.76" y1="5854.19" x2="61.85" y2="5800.65" gradientTransform="rotate(180 445.12 3221.585)" xlink:href="#linear-gradient-40"/><clipPath id="clip-path-2"><path class="cls-1" d="M785.22 606.01L824.06 598.95 840.64 625.49 801.81 632.55 785.22 606.01z"/></clipPath><clipPath id="clip-path-3"><path class="cls-1" d="M948.18 533.91L963.36 509.64 990.05 509.64 974.88 533.91 948.18 533.91z"/></clipPath></defs><g id="art"><path d="M948.18,613.67c-96.12,44.38-134.29,40.46-177.12,35.46-90.87-10.67-120.3-97.76-85-154.52,29.22-46.95,42.22-65.69,118.4-33.47s112.15,14.7,241-18.25c152.84-39.1,192.5,58.45,133.43,145-35.79,52.42-109.24,66.32-134.88,44C1002.34,595.72,975.57,601,948.18,613.67Z" style="fill:url(#linear-gradient)" id="base"/><g id="figures"><path d="M919.67,477.51l3.2,12.85H921.2L919,485.25s-10.32,3.44-18.36,5.11c-5.59,1.16-10.71-.54-2-5.54a91.83,91.83,0,0,0,11.16-7.14s-.51,4.74,3.42,4.32S919.67,477.51,919.67,477.51Z" style="opacity:.19;isolation:isolate;fill:#111032"/><path d="M990.45,345.86a54.06,54.06,0,0,1-6.87,4.78,5.89,5.89,0,0,1-4.25.58l7.24-8.26Z" style="fill:url(#linear-gradient-2)"/><path class="cls-5" d="M958.1,351.13l-20-59.5a1.72,1.72,0,0,0-1.66-1.19H919.25a1.69,1.69,0,0,0-1.61,2.23l19.73,58.67V355a1.87,1.87,0,0,0,1.87,1.87h59.53v-5.71Z"/><path class="cls-6" d="M1028.19,383.87,1022,386s2.61,8.18,7.71,22.63l-21,13-21-12.93c5.1-14.45,7.71-22.63,7.71-22.63l-6.25-2.14s-14.82,39.15-32.74,100.6l2.08.71c6.31-15.47,11.83-29.61,16.56-42.08l33.6-20.74,33.6,20.74c4.73,12.47,10.25,26.61,16.55,42.08l2.09-.71C1043,423.05,1028.19,383.87,1028.19,383.87Zm-52.72,58.26c4.89-12.93,8.91-24,12-32.84L1008.06,422ZM1009.32,422l20.57-12.69c3.11,8.81,7.14,19.88,12,32.84Z"/><path class="cls-7" d="M975.72,336.64c-6-2.08-15,6.32-15,6.32s1.7,1.92,9.52-2.63a7.14,7.14,0,0,1,5.27.43l3.5-3C977.79,337.36,976.67,337,975.72,336.64Z"/><path d="M1037.48,328.31s-30.34,11.48-36.82,13.15c-5.2,1.33-14.18-1.22-20.65-3.36l-1-.33-3.5,3c-3.17,2.7-6.94,5.85-9.36,7.75,4.46,1.29,18.61-6.27,18.61-6.27l10.11,6.3L1040.46,338Z" style="fill:url(#linear-gradient-3)"/><path class="cls-9" transform="rotate(-58.06 1030.531 430.47)" d="M1030.27 391.11H1030.99V469.82H1030.27z"/><path class="cls-9" transform="rotate(-31.67 1015.657 429.399)" d="M977.29 429.04H1054.04V429.75H977.29z"/><path class="cls-10" d="M1008.48 386.21s-13.73 43-39.77 106.91l-2.27-.78c19.28-66.24 35.28-108.47 35.28-108.47zM1037.07 386.21s13.73 43 39.76 106.91l2.24-.78c-19.27-66.24-35.28-108.47-35.28-108.47z"/><path d="M982.29,375.54l-20.85,9.06s-1.43,14.63,6.07,14.63a6.58,6.58,0,0,0,4.15-1.69c-.92.41-1.43.67-1.43.67s.51-.26,1.43-.67C976.23,393.81,980,384.5,982.29,375.54Z" style="fill:url(#linear-gradient-4)"/><path d="M909.83,477.56s-1.79-55-2.65-80.61,9-44.13,39.55-43c3.65,11,4.18,12.95,4.18,12.95l-24.72,15.35-4.73,42.84-2.68,56.76Z" style="fill:url(#linear-gradient-5)"/><path d="M921.58,478.93l3.19,12.86h-1.66l-2.22-5.12s-10.31,3.44-18.35,5.12c-5.59,1.16-10.71-.54-2-5.54a90.24,90.24,0,0,0,11.16-7.14Z" style="fill:url(#linear-gradient-6)"/><path class="cls-14" d="M955.37,356.79c-29.63-.36-42.39,7.68-43.19,36.24s-.45,86.21-.45,86.21-1.16,12.9,9.85-.2c0,0,2.56-26.57,12.91-52.28a63.93,63.93,0,0,0,1.61-42.12L970.56,389l-10.71-32.17Z"/><path d="M1010,356.74s-22.52.33-50.14.06L970.56,389l12,1.52Z" style="fill:url(#linear-gradient-7)"/><path d="M1092.28,300.17l-59.82,49.57c7.06,1.55,13.7,2.86,19.8,3.77,18.85-1.21,27.27-7.36,31.63-24.07,5.18-19.81,20.89-23.92,20.89-23.92C1111.56,301.06,1103.35,294.1,1092.28,300.17Z" style="fill:url(#linear-gradient-8)"/><path class="cls-5" d="M953.79,356.84H939.23a1.9,1.9,0,0,1-1.86-1.94h0v-3.77h16.42v5.71Z"/><path d="M933,289.73l20.58,61.4h4l-20.19-60.2a1.73,1.73,0,0,0-1.68-1.2Z" style="fill:url(#linear-gradient-9)"/><path d="M953.79,356.84H939.23a1.9,1.9,0,0,1-1.86-1.94h0v-3.77h16.42v5.71Z" style="fill:url(#linear-gradient-10)"/><path class="cls-6" d="M960.93 353.27H965.93V354.7H960.93z"/><path class="cls-10" d="M968.78 353.98H970.92V354.69H968.78z"/><path d="M985.6,343.74S977.1,349.79,973,351c-2.33.72-2.85-.74-2.85-.74l12.59-8.57Z" style="fill:url(#linear-gradient-11)"/><path d="M1031.05,342.11s4.17-12.75,4.41-31.68,2.29-17.13,9.64-23.56c8.57-7.49,17.14-18.28,20.83-22.37,7.37-8.22,20.58-7.74,26.61,7.14,4.43,10.95-26,63.64-26,63.64Z" style="fill:url(#linear-gradient-12)"/><path class="cls-14" d="M1004.1,344.37c-8.74,1.25-10,.64-17.45-2.75-6.33-2.9-13,8.36-13,8.36s1.43,1.73,3.57,0a44.83,44.83,0,0,0,6.06-5.71s5.28,6.86,10.27,6.86h46.77L1036.7,337C1024.5,340,1009.12,343.66,1004.1,344.37Z"/><path d="M971.76,339.5l-9,6.23s1.62,1.6,6-.86a88,88,0,0,0,7.86-5.1Z" style="fill:url(#linear-gradient-13)"/><path d="M1065.84,200.62c-21,0-29.12,15.49-31.2,21.15,0,0-5.66-1-6.82,5.71a11.78,11.78,0,0,0,8.72,13.35c-3.2-4.07-6.7-8.94-2.54-15.28,0,0,10,14.33,30.89,8.92,4.29-1.11,9-5,14.23-7.89a35.86,35.86,0,0,0,2.65-10.06C1082.49,209.24,1080.27,200.62,1065.84,200.62Z" style="fill:url(#linear-gradient-14)"/><path class="cls-9" d="M1081.89,223.85c-.46,5.77,6.48,7.34,6.48,7.34a14.45,14.45,0,0,0,1.7-3.57C1087.36,227.44,1083.76,226.65,1081.89,223.85Z"/><path class="cls-14" d="M1064.89,234.51c-20.9,5.4-30.89-8.93-30.89-8.93-4.16,6.34-.66,11.22,2.54,15.29a26.81,26.81,0,0,1,3.19,4.58c2.3,5-.93,7.4-.93,7.4l2.85-.58s3.2,8.39,9.61,9c4.89.46,7.39-5.16,9.34-5.88,2.14-.78,3.94.05,5.25,3.57a24.15,24.15,0,0,1,.84,3c3-4,5.46-8.21,5.93-13.87C1073.54,237.27,1068.54,235.73,1064.89,234.51Z"/><path d="M1098.07,250.89c-1-17.68-9.7-19.7-9.7-19.7s-6.94-1.57-6.48-7.34c1.87,2.8,5.47,3.57,8.18,3.75a8.74,8.74,0,0,0-.2-6.42,7.85,7.85,0,0,0-8.1-4.64,35.86,35.86,0,0,1-2.65,10.06c-5.2,2.86-9.94,6.78-14.23,7.89,3.68,1.22,8.66,2.77,7.76,13.57-.46,5.66-3,9.84-5.93,13.87-4.28,5.83-9.5,11.35-10.94,20.57a31.52,31.52,0,0,0,6.94,25.41l25.53-30.77S1099.12,268.57,1098.07,250.89Z" style="fill:url(#linear-gradient-15)"/><path class="cls-9" d="M1041.05,226.09a27.77,27.77,0,0,0,8,2.09,42.91,42.91,0,0,0,8.25,0c2.76-.2,5.51-.61,8.25-1.08s5.47-1.06,8.25-1.57a59.38,59.38,0,0,1-8,2.67,51.42,51.42,0,0,1-8.36,1.42,32.93,32.93,0,0,1-8.53-.37A19.73,19.73,0,0,1,1041.05,226.09Z"/><path d="M1095.14,281.25c-.67-17.38-19.64-24.1-24.28-12.14S1053,333,1053,333s-7.29,1.85-16.33,4.06l3.66,14.15.71,2.76,32,9.2,18-44.27S1095.81,298.62,1095.14,281.25Z" style="fill:url(#linear-gradient-16)"/><path class="cls-9" d="M1039.5 220.8c2.6.71 5.22 1.32 7.85 1.79a70.89 70.89 0 0 0 7.94 1 57.44 57.44 0 0 0 8 0 74.27 74.27 0 0 0 8-.95 32.53 32.53 0 0 1-7.89 2.06l-1 .15c-.34 0-.72.05-1 .08l-2 .13c-1.37 0-2.74 0-4.1-.09a44.24 44.24 0 0 1-8.08-1.33A34.36 34.36 0 0 1 1039.5 220.8zM1044 216.53a3.84 3.84 0 0 1 1.12.1l1.08.21 2.14.41a37.27 37.27 0 0 0 4.21.54 20.24 20.24 0 0 0 4.19-.13 18 18 0 0 0 4.14-1.13 9.26 9.26 0 0 1-3.89 2.23 13.27 13.27 0 0 1-4.52.46 17.37 17.37 0 0 1-4.41-.9 16.81 16.81 0 0 1-2.07-.82l-1-.49-.49-.27A2.28 2.28 0 0 0 1044 216.53z"/><path d="M1085.5,274.64a177.12,177.12,0,0,1-8.93,50c-9.46,27.67-35.52,29.36-35.52,29.36l32,9.2s8.72-22.39,13-44.27c.2-1.07.4-2.14.59-3.21C1091,290,1085.5,274.64,1085.5,274.64Z" style="fill:url(#linear-gradient-17)"/><path class="cls-26" d="M1039.38,243.22s.64-6.26,9.79-3.91A22.8,22.8,0,0,0,1039.38,243.22Z"/><ellipse class="cls-9" cx="1046.86" cy="245.98" rx="1.25" ry="1.87" transform="rotate(-21.48 1046.862 245.972)"/><path class="cls-7" d="M1052,254.77c.39-.44.76-.81,1.08-1.21a5.86,5.86,0,0,0,.76-1.21,7.29,7.29,0,0,0,.44-1.37c.1-.49.16-1,.27-1.6a3.46,3.46,0,0,1,.56,1.64,3.52,3.52,0,0,1-.3,1.78A3.44,3.44,0,0,1,1052,254.77Z"/><path d="M1066.53,244.42a21.22,21.22,0,0,1-5.89,11c2.14-.78,3.94.05,5.25,3.57C1071.36,253.92,1066.53,244.42,1066.53,244.42Z" style="fill:url(#linear-gradient-18)"/><path class="cls-28" d="M1052.26,353.54c-6.1-.9-12.74-2.22-19.8-3.77l-1.43-.31c-32.13-7.14-44.45,5.36-47.48,20.53-.37,1.81-.79,3.68-1.29,5.58-2.32,9-6.06,18.27-10.63,22,4.79-2.09,21-8.07,39.23-2.23,21.78,7,63.47,16.05,71.4-13a289.63,289.63,0,0,0,8-39.32C1086.1,355,1072,356.43,1052.26,353.54Z"/><path class="cls-29" d="M1083.89,329.44c-4.36,16.71-12.78,22.85-31.63,24.07,19.73,2.92,33.84,1.48,38-10.55.31-2.52.43-3.88.43-3.88s-.12,1.36-.43,3.88a18.58,18.58,0,0,0,.71-2.63c3.93-18.92,5.24-29.22,13.75-34.81C1104.78,305.52,1089.07,309.63,1083.89,329.44Z"/><path d="M1071.09,238.53c-1.61-2.54-4.11-3.34-6.2-4-20.9,5.4-30.89-8.93-30.89-8.93h0S1054.55,249.38,1071.09,238.53Z" style="fill:url(#linear-gradient-19)"/><path d="M936.1,384.6l-9.94-2.32,12.61,16.9A57.86,57.86,0,0,0,936.1,384.6Z" style="fill:url(#linear-gradient-20)"/><path class="cls-6" d="M881.67 540.5L871.29 545.75 876.7 559.66 896.13 553.88 895.91 542.52 881.67 540.5z"/><path d="M694.45,508.8s10.46,49,34.33,70.13c19,16.78,48.29,11,77,5.91,31.58-5.64,81.48-21.42,81.48-21.42l-12.62-25s-42.51,8.81-89.63,13.81c-27.21,2.86-30.09-27.13-30.09-27.13l22.85-8.81-7.14-33.56Z" style="fill:url(#linear-gradient-21)"/><path d="M881.68,540.5l7.65-8.16,28.81,31.06s-5.26,5.61-11.93-1.84c-7.06-7.89-13.35-4.41-13.35-4.41s-3.61-.67-2.27-5.53C892.9,543.46,881.68,540.5,881.68,540.5Z" style="fill:url(#linear-gradient-22)"/><path class="cls-6" d="M924 586.66L919.72 569.79 934 565.42 941.49 584.25 924 586.66z"/><path d="M922.38,580.56l-.76,11.18H964s.54-7.67-9.46-7.49c-10.59.18-12.31-6.78-12.31-6.78s-3-2.2-5.6,2.09C932.17,586.76,922.38,580.56,922.38,580.56Z" style="fill:url(#linear-gradient-23)"/><path class="cls-10" d="M913.65,577l27.13-2.14S895.43,458.38,873.29,447c-24.42-12.61-93.16,24.63-93.16,24.63l-9.52,11.18,7.14,33.56,77.94-29.51Z"/><path d="M834.39,508.8s14.76-7.46,16.9-10.51l5.47,2-5.59,7-10.35,3.46Z" style="fill:url(#linear-gradient-24)"/><path class="cls-6" d="M797.42,475.4s-15.95-9.39-12.85-28.56l-11.42-2V475c0,18.14,16.83,17.36,24.57,17.36S842,485.41,842,485.41l2.78-11Z"/><path class="cls-29" d="M785,441.31l-15.71,2.2,1.3,5.24,13.63-1.91C784.43,445,784.69,443.19,785,441.31Z"/><path d="M797.42,475.4s-15.95-9.39-12.85-28.56l-11.42-2V475c0,18.14,16.83,17.36,24.57,17.36S842,485.41,842,485.41l2.78-11Z" style="fill:url(#linear-gradient-25)"/><path d="M786.36,434.93c4.87-22.13-5.12-33.31-5.12-33.31L760.3,390.67v54.12l24.84-3.49C785.48,439.22,785.88,437.08,786.36,434.93Z" style="fill:url(#linear-gradient-26)"/><path class="cls-28" d="M923.14,432.52h-77a3.28,3.28,0,0,0-3,2l-26.85,60.88H776.72v5.71H896.06a2,2,0,0,0,2-2v-4l26.71-60a1.8,1.8,0,0,0-.93-2.38A1.86,1.86,0,0,0,923.14,432.52Z"/><path d="M778.8,402.71a40.23,40.23,0,0,1-5.34-4.68c-2.14-2.19-3.57-4-3.57-4-2.89,3.2-3.9,9.17-4.1,15a93.18,93.18,0,0,0,1,15.92l-5.48-15.46L747,378.86l-.94-2s-2.14.67-5.56,2.14c-8.44,3.57-24.63,12-35.14,27-17.85,25.46-26.56,61.3-16,110.92,31.66-10.47,87.15-30.21,87.15-30.21-6.8-15.7-.17-43.46,2.61-61.79C781,413,780.05,406.3,778.8,402.71Z" style="fill:url(#linear-gradient-27)"/><path class="cls-5" d="M766.8,424.94a93.24,93.24,0,0,1-1-15.92h0c.2-5.85,1.21-11.82,4.1-15,0,0-2.85-3.57,2.62-9.4a44.45,44.45,0,0,0,7.5-10.11s4.52-11.19-4.52-10.48c-6.68.53-6.48,11.07-6.48,11.07s-5.54,3.21-9.35-.12-3.41-5.67-3.41-5.67L747,378.89l14.28,30.6Z"/><path class="cls-6" d="M803.81,370.45c-2.26-2.63-8-11.2-8-11.2L782,382.1l13,12.38,5.48,1.07,1.43-9.17s11.58-4.28,9.38-12.85A10.34,10.34,0,0,1,803.81,370.45Z"/><path class="cls-9" d="M826.42,357.72c-9.64,2.37-15.83-1.43-15.83-1.43s-6.54-26.19-29.51-24-24.83,37.05-24.83,37.05-.39,2.34,3.41,5.67,9.35.12,9.35.12-.2-10.54,6.48-11.07c9-.71,4.52,10.47,4.52,10.47a44.19,44.19,0,0,1-7.5,10.11c-5.47,5.83-2.62,9.41-2.62,9.41s1.43,1.83,3.57,4a40.23,40.23,0,0,0,5.34,4.68l.14.1c4.76,3.34,16.06-8.32,16.06-8.32L782,382.1l13.81-22.85s5.71,8.57,8,11.19a10.31,10.31,0,0,0,7.48,3.12,18.47,18.47,0,0,0,10.13-3.12,4.08,4.08,0,0,1-4.28-3.57S828.92,364,826.42,357.72Z"/><path class="cls-5" d="M746.93,413.56l-2.5-26.77c-6.78,3.21-35,26.75-31.88,73.22l36.2-6.11Z"/><path class="cls-1" d="M853.85,501.07H858l.71-3.06S856.59,499.43,853.85,501.07Z"/><path d="M797.37,378.77s9.19-2.14,12.41,4.08l-1.52,2A30.09,30.09,0,0,0,797.37,378.77Z" style="fill:url(#linear-gradient-28)"/><ellipse class="cls-9" cx="796.43" cy="385.98" rx="2.13" ry="1.69" transform="rotate(-40.08 796.437 385.98)"/><path class="cls-6" d="M781.75,388.09a3.57,3.57,0,0,0,.89,5l.33.2"/><path d="M773.15,413.91V398c-2.14-2.19-3.57-4-3.57-4-2.89,3.2-3.9,9.17-4.1,15Z" style="fill:url(#linear-gradient-29)"/><path d="M761.32,409.48,747,378.88l-.71.71.71-.71-.94-2s-2.14.67-5.56,2.14L747,413.89Z" style="fill:url(#linear-gradient-30)"/><path d="M819.56,495.36H898.1v4.39a2,2,0,0,1-2,2H819.56v-6.42Z" style="fill:url(#linear-gradient-31)"/><path d="M847.17,432.52l-27.71,62.84h-3l26.85-60.88a3.26,3.26,0,0,1,3-2Z" style="fill:url(#linear-gradient-32)"/><ellipse cx="873.29" cy="463.84" rx="7.05" ry="5.79" transform="rotate(-70.39 873.284 463.84)" style="fill:url(#linear-gradient-33)"/><path class="cls-6" d="M844,506.23c-5,1.42-10.59-4.89-10.59-5.16h-14l-68.19,7.77-2.46-54.63-36.2,6.11c1,30.49,11.85,67.91,37.24,69.93,31.41,2.5,67.83-19.28,75-20.35,3.94-.59,7.85,5,17.85,2.5S858,501.34,858,501.78h-4.11C850.71,503.24,846.71,505.46,844,506.23Z"/><path class="cls-6" d="M819.4,501.34s14.28-2.63,21.17-4.17c3.57-.78,5.9.9-.29,4s-15.15,7.64-15.15,7.64Z"/><path class="cls-29" d="M713,467.31l36-6.09-.31-7-36.2,6.1C712.63,462.62,712.78,464.92,713,467.31Z"/><path class="cls-6" d="M766.8,424.94a93.24,93.24,0,0,1-1-15.92h0c.2-5.85,1.21-11.82,4.1-15,0,0-2.85-3.57,2.62-9.4a44.45,44.45,0,0,0,7.5-10.11s4.52-11.19-4.52-10.48c-6.68.53-6.48,11.07-6.48,11.07s-5.54,3.21-9.35-.12-3.41-5.67-3.41-5.67L747,378.89l14.28,30.6Z"/><path d="M766.8,424.94a93.24,93.24,0,0,1-1-15.92h0c.2-5.85,1.21-11.82,4.1-15,0,0-2.85-3.57,2.62-9.4a44.45,44.45,0,0,0,7.5-10.11s4.52-11.19-4.52-10.48c-6.68.53-6.48,11.07-6.48,11.07s-5.54,3.21-9.35-.12-3.41-5.67-3.41-5.67L747,378.89l14.28,30.6Z" style="fill:url(#linear-gradient-34)"/><path d="M803.81,370.45c-2.26-2.63-8-11.2-8-11.2l-1,1.59c2.15,5,7.68,15.33,16.6,16a8.29,8.29,0,0,0-.18-3.29A10.35,10.35,0,0,1,803.81,370.45Z" style="fill:url(#linear-gradient-35)"/><path style="fill:url(#linear-gradient-36)" d="M1028.69 485.21L1010.51 587.41 1012.69 587.87 1037.42 487.06 1028.69 485.21z"/><path style="fill:url(#linear-gradient-37)" d="M1088.64 503.98L1096.8 611.16 1094.5 611.41 1079.45 504.98 1088.64 503.98z"/><path style="fill:url(#linear-gradient-38)" d="M1112.95 475.17L1131.13 577.37 1128.95 577.83 1104.22 477.02 1112.95 475.17z"/><path class="cls-10" d="M1143,479.65c-6.61-10.18-35.43-17.85-70-17.85s-63.36,7.67-70,17.85h-1.42v4.43c0,12.33,32,22.31,71.4,22.31s71.4-10,71.4-22.31v-4.46Z"/><ellipse cx="1072.75" cy="479.77" rx="71.4" ry="22.31" style="fill:url(#linear-gradient-39)"/><path class="cls-10" d="M1009.48 586.75h4.29a2.14 2.14 0 0 1 2.14 2.14h-8.58a2.14 2.14 0 0 1 2.14-2.14zM1093.68 610.31H1098a2.14 2.14 0 0 1 2.14 2.14h-8.56A2.14 2.14 0 0 1 1093.68 610.31zM1128.27 576.75h4.29a2.14 2.14 0 0 1 2.14 2.14h-8.59a2.14 2.14 0 0 1 2.14-2.14z"/><path style="fill:url(#linear-gradient-40)" d="M986.97 544.62L1004.82 508.92 964.66 508.92 946.81 544.62 986.97 544.62z"/><path d="M1094.14,482.5c0,2.27,6.42,4.11,14.38,4.11s14.37-1.84,14.37-4.11l4.11-32.84h-37Z" style="fill:url(#linear-gradient-41)"/><path class="cls-10" d="M1088.73,455c0,5.27,17.63,5.42,19.64,5.42S1128,460.24,1128,455v-6.74h-39.27Z"/><ellipse class="cls-26" cx="1108.52" cy="448.31" rx="19.79" ry="5.42"/><ellipse cx="1108.52" cy="448.31" rx="18.48" ry="4.11" style="fill:url(#linear-gradient-42)"/><g style="clip-path:url(#clip-path)"><path class="cls-5" d="M1116.79 459.05s17.43-48.55 10.44-78.11c-11 24.89-13.32 76.26-13.32 76.26zM1111.43 455.68s8.57-73.85-3.18-104.74c-13.48 40.42-.27 107.7-.27 107.7zM1102.39 456.81s.84-37.38-10.71-52.64c-4.15 23.71 9.08 54.13 9.08 54.13z"/><path d="M1116.79,459.05s17.43-48.55,10.44-78.11c-11,24.89-13.32,76.26-13.32,76.26Z" style="fill:url(#linear-gradient-43)"/><path d="M1111.43,455.68s8.57-73.85-3.18-104.74c-13.48,40.42-.27,107.7-.27,107.7Z" style="fill:url(#linear-gradient-44)"/><path d="M1102.39,456.81s.84-37.38-10.71-52.64c-4.15,23.71,9.08,54.13,9.08,54.13Z" style="fill:url(#linear-gradient-45)"/></g><path style="fill:url(#linear-gradient-46)" d="M1088.73 493.93H1090.8700000000001V499.64H1088.73z"/><path style="fill:url(#linear-gradient-47)" d="M1090.72 493.93L1064.41 463.23 1027.13 463.23 1053.44 493.93 1090.72 493.93z"/><path style="fill:url(#linear-gradient-48)" d="M1090.92 499.64L1064.61 468.94 1027.33 467.84 1027.33 468.94 1053.64 499.64 1090.92 499.64z"/><path style="fill:url(#linear-gradient-49)" d="M1027.33 463.47L1027.33 467.87 1053.75 498.7 1053.75 494.3 1027.33 463.47z"/><path class="cls-62" d="M1053.75 494.64H1088.74V498.91999999999996H1053.75z"/><path class="cls-6" transform="rotate(-45 1029.248 483.562)" d="M1028.14 471.29H1030.3700000000001V495.83000000000004H1028.14z"/><path class="cls-7" d="M1038.72,491.45l.78.79a1.1,1.1,0,0,1,0,1.57h0a1.1,1.1,0,0,1-1.57,0l-.79-.78h0l1.58-1.58Z"/><path class="cls-10" d="M1017.86 472.18L1018.85 473.98 1019.66 473.17 1017.86 472.18z"/><path class="cls-7" d="M1018.85 473.98L1019.78 475.68 1021.36 474.1 1019.66 473.17 1018.85 473.98z"/><path class="cls-62" d="M978.04 539.62L1000.36 503.92 960.19 503.92 937.88 539.62 978.04 539.62z"/><path style="fill:url(#linear-gradient-50)" d="M798.87 639.18L775.45 601.69 826.99 592.32 850.42 629.8 798.87 639.18z"/><g style="clip-path:url(#clip-path-2)"><path class="cls-14" d="M799.88 631.64a9.71 9.71 0 0 1-2.08-.26 8.27 8.27 0 0 0-3.67-.06l-.14-.72a9.12 9.12 0 0 1 4 .08 9.41 9.41 0 0 0 7.08-1.29A9 9 0 0 1 808.7 628a9.32 9.32 0 0 1 4 .07 8.12 8.12 0 0 0 3.67.07 8.29 8.29 0 0 0 3.41-1.35 9.13 9.13 0 0 1 3.68-1.43 9.28 9.28 0 0 1 4 .07 9.27 9.27 0 0 0 7.09-1.28 10.09 10.09 0 0 1 7.64-1.4 8.08 8.08 0 0 0 3.66 0l.13.72a9.12 9.12 0 0 1-4-.07 9.31 9.31 0 0 0-7.09 1.29 10.27 10.27 0 0 1-7.64 1.36 9.32 9.32 0 0 0-7.09 1.29 9.08 9.08 0 0 1-3.68 1.43 8.93 8.93 0 0 1-4-.08 8.46 8.46 0 0 0-3.68-.06 8.12 8.12 0 0 0-3.41 1.36 9.28 9.28 0 0 1-3.68 1.43A10.57 10.57 0 0 1 799.88 631.64zM795.2 624.14a9.71 9.71 0 0 1-2.09-.25 8.31 8.31 0 0 0-3.68-.07l-.12-.71a8.93 8.93 0 0 1 4 .07 8.12 8.12 0 0 0 3.67.06 8.23 8.23 0 0 0 3.41-1.35 8.92 8.92 0 0 1 3.68-1.42 9.12 9.12 0 0 1 4 .07 8.27 8.27 0 0 0 3.67.07 8.49 8.49 0 0 0 3.42-1.36 9 9 0 0 1 3.68-1.43 9.28 9.28 0 0 1 4 .07 8.27 8.27 0 0 0 3.67.08 8.54 8.54 0 0 0 3.42-1.36 10 10 0 0 1 7.64-1.39 8.12 8.12 0 0 0 3.67.06l.14.72a9.12 9.12 0 0 1-4-.08 9.37 9.37 0 0 0-7.09 1.3 9.1 9.1 0 0 1-3.69 1.42 8.78 8.78 0 0 1-4-.07 8.46 8.46 0 0 0-3.68-.06 8.12 8.12 0 0 0-3.41 1.36 9.26 9.26 0 0 1-3.68 1.42 9 9 0 0 1-4-.07 9.42 9.42 0 0 0-7.09 1.29 9 9 0 0 1-3.67 1.43A9.9 9.9 0 0 1 795.2 624.14zM790.51 616.65a9.72 9.72 0 0 1-2.09-.26 8.27 8.27 0 0 0-3.67-.07l-.14-.71a9.12 9.12 0 0 1 4 .07 8.31 8.31 0 0 0 3.68.07 8.57 8.57 0 0 0 3.41-1.35 8.75 8.75 0 0 1 3.68-1.43 8.93 8.93 0 0 1 3.95.07 8.31 8.31 0 0 0 3.68.07 8.44 8.44 0 0 0 3.41-1.36 8.92 8.92 0 0 1 3.68-1.42 9.12 9.12 0 0 1 4 .07 9.31 9.31 0 0 0 7.09-1.29 10.18 10.18 0 0 1 7.64-1.35 8.17 8.17 0 0 0 3.68.06l.13.71a9 9 0 0 1-4-.07 9.33 9.33 0 0 0-7.09 1.3 9.12 9.12 0 0 1-3.68 1.42 9 9 0 0 1-4-.07 9.42 9.42 0 0 0-7.09 1.29 9.08 9.08 0 0 1-3.68 1.43 9 9 0 0 1-4-.07 8.26 8.26 0 0 0-3.67-.06 8.15 8.15 0 0 0-3.41 1.35 9.08 9.08 0 0 1-3.68 1.43A10.75 10.75 0 0 1 790.51 616.65zM831.74 600.19a8.27 8.27 0 0 1-3.67-.07 10.11 10.11 0 0 0-7.65 1.4 9.32 9.32 0 0 1-7.09 1.28 9.33 9.33 0 0 0-4-.08 9.13 9.13 0 0 0-3.68 1.43 8.43 8.43 0 0 1-3.42 1.36 11.2 11.2 0 0 1-1.42.15l.45.72a6.49 6.49 0 0 0 1.1-.14 9 9 0 0 0 3.67-1.43 9.38 9.38 0 0 1 7.09-1.3 9 9 0 0 0 4 .08 9.18 9.18 0 0 0 3.67-1.43 9.35 9.35 0 0 1 7.1-1.29 9.12 9.12 0 0 0 4 .07z"/></g><g style="clip-path:url(#clip-path-3)"><path class="cls-14" d="M982.35 533.82a6 6 0 0 1-3-.71 5.74 5.74 0 0 0-5.4 0 6.49 6.49 0 0 1-6 0 5.72 5.72 0 0 0-5.39 0 6.49 6.49 0 0 1-6 0 5.72 5.72 0 0 0-5.39 0 6.49 6.49 0 0 1-6 0 5.13 5.13 0 0 0-2.7-.71v-.72a6 6 0 0 1 3 .72 5.72 5.72 0 0 0 5.39 0 6.42 6.42 0 0 1 6 0 5.74 5.74 0 0 0 5.4 0 6 6 0 0 1 3-.72 6 6 0 0 1 3 .72 5.74 5.74 0 0 0 5.4 0 6.44 6.44 0 0 1 6 0 5.32 5.32 0 0 0 2.7.71zM986.63 526.68a6 6 0 0 1-3-.75 5.74 5.74 0 0 0-5.4 0 6.44 6.44 0 0 1-6 0 5.74 5.74 0 0 0-5.4 0 6.42 6.42 0 0 1-6 0 5.74 5.74 0 0 0-5.4 0 6.44 6.44 0 0 1-6 0 5.08 5.08 0 0 0-2.69-.67v-.72a6 6 0 0 1 3 .75 5.74 5.74 0 0 0 5.4 0 6.47 6.47 0 0 1 6 0 5.72 5.72 0 0 0 5.39 0 6.51 6.51 0 0 1 6 0 5.72 5.72 0 0 0 5.39 0 6.49 6.49 0 0 1 6 0 5.22 5.22 0 0 0 2.7.68zM988.92 518.15a6.5 6.5 0 0 0-6.06 0 5.78 5.78 0 0 1-5.42 0 5.94 5.94 0 0 0-3-.75 6.09 6.09 0 0 0-3 .75 5.22 5.22 0 0 1-2.7.68 5.63 5.63 0 0 1-1.68-.23l-.38.62a6.56 6.56 0 0 0 5.08-.43 5.78 5.78 0 0 1 5.42 0 6.5 6.5 0 0 0 6.06 0 5.78 5.78 0 0 1 5.42 0 5.85 5.85 0 0 0 3 .75v-.71A5.23 5.23 0 0 1 988.92 518.15z"/></g><path class="cls-66" d="M886.67 392.54h2.15v-1.93a1.68 1.68 0 0 1 1.29-1 .82.82 0 0 1 .85 1v1.93h2.4a1.74 1.74 0 0 1 1 1.32.79.79 0 0 1-1 .82H891v2.41a.82.82 0 0 1-.85 1c-.53 0-1.29-1-1.29-1v-2.41h-2a.8.8 0 0 1-1-.84 1 1 0 0 1 .78-1zM869.27 415.39H871v-1.7a.71.71 0 0 1 1.42 0v1.7h1.7a.72.72 0 1 1 0 1.43h-1.7v1.7a.71.71 0 1 1-1.42 0v-1.7h-1.7a.72.72 0 0 1 0-1.43zM962 303.29h-2.5v-2.17c.4-.48 0-.84-.5-.79a1.2 1.2 0 0 0-.93.79v2.17h-1.93a.72.72 0 0 0-.78.84c0 .42.37.75.78.59h1.93V307a1.12 1.12 0 0 0 1.08.79c.42 0 .76-.37.35-.79v-2.26H962a.65.65 0 0 0 1-.59.87.87 0 0 0-.79-.95C962.1 303.18 962.05 303.18 962 303.29zM882.7 361.84h2.55v-2.55a1.07 1.07 0 1 1 2.14-.17v2.72h2.54a1.07 1.07 0 1 1 0 2.14h-2.54v2.55a1.09 1.09 0 0 1-1 1.16 1.07 1.07 0 0 1-1.15-1 .49.49 0 0 1 0-.17V364H882.7a1.07 1.07 0 0 1 0-2.14zM968.47 277.59h-2.54V275a1.08 1.08 0 0 0-2.15 0v2.55h-2.54a1.07 1.07 0 0 0 0 2.14h2.54v2.54a1.08 1.08 0 0 0 2.15 0v-2.54h2.54a1.07 1.07 0 0 0 0-2.14zM956.22 261.17h-3.15v-3.06c.29-.67-.26-1.21-.93-1.21a1.21 1.21 0 0 0-1.21 1.21v3.06h-2.85a1 1 0 0 0-1.22 1 1.09 1.09 0 0 0 1.21 1.13h2.86v2.94a1.22 1.22 0 0 0 1.21 1.22c.67 0 1.22-.54.93-1.21h0v-2.94h3.15a1.09 1.09 0 0 0 1.21-1.13A1 1 0 0 0 956.22 261.17zM868.11 380.4H871V377a1.43 1.43 0 0 1 2.85 0v3.39h3.38a1.43 1.43 0 0 1 0 2.86h-3.38v3.4a1.43 1.43 0 0 1-2.85 0v-3.4h-2.86a1.45 1.45 0 0 1 0-2.85z"/></g></g></svg>