<svg id="svg" xmlns="http://www.w3.org/2000/svg" viewBox="0 0 176.3 151.8"><style>.st0{fill:#fff}.st1,.st2{fill:#d7e9ff;stroke:#d7e9ff;stroke-width:1.6;stroke-linecap:round;stroke-linejoin:round}.st2{fill:none}.st3{fill:#d7e9ff}.st4{fill:none;stroke:#fff;stroke-width:4;stroke-linecap:round;stroke-linejoin:round}.st5{fill:#8fbeff}.st6{fill:#d7e9ff;stroke:#d7e9ff;stroke-width:1.6;stroke-miterlimit:10}.st7,.st8,.st9{fill:#8fbeff;stroke:#8fbeff;stroke-width:1.6;stroke-linejoin:round}.st8,.st9{fill:#4894ff;stroke:#4894ff}.st9{fill:#0069ff;stroke:#0069ff}.st10,.st11,.st12,.st13{fill:none;stroke-width:1.6}.st10{stroke-linecap:round;stroke-miterlimit:10;stroke:#4894ff}.st11,.st12,.st13{stroke:#8fbeff;stroke-linejoin:round}.st12,.st13{stroke:#0069ff;stroke-width:2}.st13{stroke-linecap:round}</style><path class="st0" d="M32.4 29l22.7 13.1v9.1L32.4 64.3 9.8 51.2v-9.1z"/><path class="st1" d="M32.4 55.2l22.7-13.1v9.1L32.4 64.3 9.8 51.2v-9.1z"/><path class="st2" d="M32.4 29l22.7 13.1v9.1L32.4 64.3 9.8 51.2v-9.1z"/><path class="st0" d="M126.3 29.9L103.7 43v9.1l22.6 13.1L149 52.1V43z"/><path class="st1" d="M126.3 56.1L103.7 43v9.1l22.6 13.1L149 52.1V43z"/><path class="st2" d="M126.3 29.9L103.7 43v9.1l22.6 13.1L149 52.1V43z"/><path class="st3" d="M129 74.8c0 27.8-22.6 50.4-50.4 50.4-27.8 0-50.4-22.6-50.4-50.4C28.1 41.7 78.6 1 78.6 1S129 43.1 129 74.8z"/><path class="st4" d="M95.4 25.6c5.1 5.6 9.9 11.6 14.1 18M84.1 14c1.9 1.9 4.1 4 6.3 6.3"/><path class="st5" d="M78.6 125.2c-27.8 0-50.4-22.6-50.4-50.4C28.1 41.7 78.6 1 78.6 1v124.2z"/><ellipse class="st6" cx="78.8" cy="145.2" rx="35.1" ry="5.8"/><path class="st7" d="M91.2 96v10.4l26-14.9-9.1-5.3z"/><path class="st8" d="M108.1 86.2l9.1 5.3V81z"/><path class="st7" d="M91.2 78.4v10.5l26-15-9.1-5.2z"/><path class="st8" d="M108.1 68.7l9.1 5.2V63.4zM65.9 96v10.4l-26-14.9 9.1-5.3z"/><path class="st9" d="M49 86.2l-9.1 5.3V81z"/><path class="st8" d="M65.9 78.4v10.5l-26-15 9.1-5.2z"/><path class="st9" d="M49 68.7l-9.1 5.2V63.4z"/><path class="st10" d="M152.6 87.9L123.2 71M129.9 101l-10.3-6"/><path class="st0" d="M152.6 87.9l22.7 13.1v9.1l-22.7 13.1-22.7-13.1V101z"/><path class="st3" d="M152.6 114.1l22.7-13.1v9.1l-22.7 13.1-22.7-13.1V101z"/><path class="st7" d="M157 116.7l13.9-8.2v-.9l-13.9 8.1z"/><path class="st11" d="M152.6 123.2v-9.1M129.9 101l22.7 13.1 22.7-13.1"/><path class="st12" d="M152.6 87.9l22.7 13.1v9.1l-22.7 13.1-22.7-13.1V101z"/><path class="st13" d="M29.5 86.3c-.9-3.8-1.3-7.7-1.3-11.5C28.1 41.7 78.6 1 78.6 1s45.5 38.1 50.1 69M121.9 100.6c-14.2 23.9-45.2 31.8-69.1 17.5-9.5-5.7-16.9-14.3-21-24.5M128.8 78.7c-.4 5.3-1.6 10.4-3.6 15.3"/><path class="st10" d="M46.3 107.1l5.3-3.1M23.7 94l12.4-7.2"/><path class="st0" d="M23.7 94L1 107.1v9.1l22.7 13.1 22.6-13.1v-9.1z"/><path class="st3" d="M23.7 120.2L1 107.1v9.1l22.7 13.1 22.6-13.1v-9.1z"/><path class="st7" d="M19.3 122.7l-13.9-8.1v-1l13.9 8.2z"/><path class="st11" d="M23.7 129.3v-9.1M46.3 107.1l-22.6 13.1L1 107.1"/><path class="st12" d="M23.7 94L1 107.1v9.1l22.7 13.1 22.6-13.1v-9.1z"/><path class="st2" d="M126.3 56.1l47-27.2M117.2 35.2l21.5-12.5"/></svg>