<svg xmlns="http://www.w3.org/2000/svg" xmlns:xlink="http://www.w3.org/1999/xlink" viewBox="0 0 612 490"><defs><style>.cls-1{opacity:.06}.cls-1,.cls-5{isolation:isolate}.cls-2{fill:#fff}.cls-11,.cls-3,.cls-4{fill:none;stroke-miterlimit:10}.cls-3{stroke:#d4e3ff}.cls-11,.cls-3,.cls-4{stroke-width:1.5px}.cls-4{stroke:#acc6e9}.cls-11,.cls-4{stroke-linecap:round;stroke-dasharray:0 5}.cls-5{font-size:7.64px;fill:#acc6e9;font-family:Sailec-Bold,Sailec;font-weight:700}.cls-6{fill:#a5c1e9}.cls-9{fill:#0069ff}.cls-11{stroke:#0069ff}</style><linearGradient id="linear-gradient" x1="291.13" x2="407.38" y1="739.93" y2="623.35" gradientTransform="matrix(1 0 0 -1 0 962)" gradientUnits="userSpaceOnUse"><stop offset="0" stop-color="#0069ff" stop-opacity=".1"/><stop offset="1" stop-color="#0069ff" stop-opacity="0"/></linearGradient><linearGradient id="linear-gradient-2" x1="255.54" x2="255.54" y1="652.4" y2="898.9" gradientTransform="matrix(1 0 0 -1 0 962)" gradientUnits="userSpaceOnUse"><stop offset="0" stop-color="#0069ff"/><stop offset="1" stop-color="#120078"/></linearGradient><linearGradient id="linear-gradient-3" x1="240.63" x2="240.63" y1="818.19" y2="697.31" gradientTransform="matrix(1 0 0 -1 0 962)" gradientUnits="userSpaceOnUse"><stop offset="0" stop-color="#0069ff" stop-opacity=".4"/><stop offset="1" stop-color="#0069ff" stop-opacity="0"/></linearGradient><linearGradient id="linear-gradient-4" x1="-3660.28" x2="-3586.68" y1="877.51" y2="877.51" gradientTransform="matrix(0 1 1 0 -554.77 3751.08)" gradientUnits="userSpaceOnUse"><stop offset="0" stop-color="#0069ff" stop-opacity=".2"/><stop offset="1" stop-color="#0069ff" stop-opacity="0"/></linearGradient><linearGradient id="linear-gradient-5" x1="-3640.03" x2="-3606.83" y1="877.51" y2="877.51" xlink:href="#linear-gradient-4"/><linearGradient id="linear-gradient-6" x1="322.14" x2="356.14" y1="924.45" y2="924.45" gradientTransform="matrix(1 0 0 -1 0 962)" gradientUnits="userSpaceOnUse"><stop offset="0" stop-color="#0069ff"/><stop offset="1" stop-color="#0069ff" stop-opacity=".4"/></linearGradient></defs><path d="M543.54 387.4h-373.6a5 5 0 0 1-5-5V147.8a5 5 0 0 1 5-5h373.6a5 5 0 0 1 5 5v234.6a5 5 0 0 1-5 5z" class="cls-2"/><path d="M543.54 387.4h-373.6a5 5 0 0 1-5-5V147.8a5 5 0 0 1 5-5h373.6a5 5 0 0 1 5 5v234.6a5 5 0 0 1-5 5z" class="cls-3"/><path d="M245.84 178.9h276.5M245.84 234.6h276.5M245.84 290.3h276.5M245.84 346h276.5" class="cls-4"/><text class="cls-5" transform="translate(201.29 347.02)">0.00 MBps</text><text class="cls-5" transform="translate(201.29 291.89)">0.37 MBps</text><text class="cls-5" transform="translate(201.29 235.92)">0.73 MBps</text><text class="cls-5" transform="translate(201.29 179.95)">1.00 MBps</text><path d="M496 347.7H122.44a5 5 0 0 1-5-5V108.1a5 5 0 0 1 5-5H496a5 5 0 0 1 5 5v234.6a5 5 0 0 1-5 5z" class="cls-2"/><path d="M496 347.7H122.44a5 5 0 0 1-5-5V108.1a5 5 0 0 1 5-5H496a5 5 0 0 1 5 5v234.6a5 5 0 0 1-5 5z" class="cls-3"/><path d="M198.34 139.6h276.5M198.34 195.3h276.5M198.34 251h276.5M198.34 306.7h276.5" class="cls-4"/><text class="cls-5" transform="translate(153.74 307.7)">0.00 MBps</text><text class="cls-5" transform="translate(153.74 252.56)">0.37 MBps</text><text class="cls-5" transform="translate(153.74 196.59)">0.73 MBps</text><text class="cls-5" transform="translate(153.74 140.62)">1.00 MBps</text><path d="M525.44 397.6a5.2 5.2 0 0 1 0 10.4h-4.1v-10.4h4.1zm-2.5 9h2.5c2 0 3.4-1.3 3.4-3.8s-1.4-3.8-3.4-3.8h-2.5zM534.14 398.4a1 1 0 1 1-1-1 .94.94 0 0 1 1 1zm-1.7 9.6v-7.2H534v7.2zM541.24 403l-1.6.1a1.06 1.06 0 0 0-1.2-1c-.7 0-1.1.3-1.1.8s.6.7 1.6.9c1.5.4 2.5.8 2.5 2.1s-1.1 2.3-2.8 2.3-2.8-.9-2.9-2.3l1.6-.1c.1.7.5 1 1.4 1 .7 0 1.2-.3 1.2-.8s-.4-.7-1.5-1c-1.4-.3-2.5-.7-2.5-2.1s1-2.2 2.7-2.2a2.41 2.41 0 0 1 2.6 2.3zM547.54 400.8h1.9l-2.8 3.1 3.2 4.1h-2l-2.3-2.9-.7.7v2.2h-1.6v-10.8h1.6v6.6zM481.74 362.5l-1.7.2a3 3 0 0 0-3.2-2.6c-2 0-3.5 1.5-3.5 3.9s1.5 3.9 3.5 3.9a2.89 2.89 0 0 0 3.1-2.5l1.7.2a4.59 4.59 0 0 1-4.8 3.8c-3 0-5.2-2-5.2-5.4s2.2-5.4 5.2-5.4a4.7 4.7 0 0 1 4.9 3.9zM487.74 358.7A3 3 0 0 1 491 362a3.1 3.1 0 0 1-3.3 3.3h-2.6v3.9h-1.7v-10.4h4.3zm-2.6 5h2.4a1.8 1.8 0 0 0 0-3.6h-2.4zM501.14 365.1c0 2.7-1.7 4.2-4.3 4.2s-4.3-1.5-4.3-4.2v-6.4h1.7v6.4c0 1.8.9 2.8 2.6 2.8s2.6-.9 2.6-2.8v-6.4h1.7v6.4z" class="cls-6"/><path fill="url(#linear-gradient)" d="M563.74 183.1l-296 296-203.7-172.4 382.5-240.8 117.2 117.2z"/><path d="M442.34 308.6H68.74a5 5 0 0 1-5-5V69.1a5 5 0 0 1 5-5h373.6a5 5 0 0 1 5 5v234.6a4.93 4.93 0 0 1-5 4.9z" class="cls-2"/><path fill="none" stroke="url(#linear-gradient-2)" stroke-miterlimit="10" stroke-width="2" d="M442.34 308.6H68.74a5 5 0 0 1-5-5V69.1a5 5 0 0 1 5-5h373.6a5 5 0 0 1 5 5v234.6a4.93 4.93 0 0 1-5 4.9z"/><path d="M365.24 338.7h80a3 3 0 0 0 3-3v-17a3 3 0 0 0-3-3h-80a3 3 0 0 0-3 3v17a3 3 0 0 0 3 3z" class="cls-9"/><path d="M377 322.4c1.7 0 2.9.8 2.9 2.6a2 2 0 0 1-.9 1.8 2.23 2.23 0 0 1 1.3 2.2c0 1.8-1.2 2.7-3 2.7h-4.2v-9.4h3.9zm-2 3.8h1.9a1 1 0 0 0 1.1-1c0-.7-.5-1-1.2-1H375zm0 3.9h2c.7 0 1.3-.3 1.3-1.1s-.5-1.1-1.2-1.1H375v2.2zM387.14 327.8v4h-1.8v-.5a2.18 2.18 0 0 1-1.6.7 1.85 1.85 0 0 1-2.1-1.9c0-1.4 1.2-1.9 2.6-2l1.1-.1v-.2c0-.7-.3-1-.8-1a.84.84 0 0 0-.9.9l-1.8-.1a2.5 2.5 0 0 1 2.7-2.3 2.22 2.22 0 0 1 2.6 2.5zm-2.8 1.4c-.5 0-.9.2-.9.7s.3.6.7.6a1.08 1.08 0 0 0 1.2-1.1v-.3zM394.84 327.8v4H393v-3.6c0-.8-.4-1.3-1.1-1.3a1.18 1.18 0 0 0-1.2 1.3v3.6h-1.8v-6.5h1.7v.7a1.88 1.88 0 0 1 1.7-.8 2.34 2.34 0 0 1 2.54 2.6zM401.34 331.8v-.7a2.42 2.42 0 0 1-1.9.8 3.08 3.08 0 0 1-3.1-3.4 3.13 3.13 0 0 1 3.1-3.4 2.32 2.32 0 0 1 1.8.7V322H403v9.7h-1.7zm-3.2-3.2c0 1.2.6 1.8 1.6 1.8s1.5-.6 1.5-1.7v-.3a1.53 1.53 0 0 0-1.5-1.7c-1 0-1.6.7-1.6 1.9zM410.54 331.8l-1.3-3.4-1.3 3.4h-1.4l-2.5-6.5h2l1.3 3.7 1.3-3.7h1.3l1.3 3.7 1.3-3.7h2l-2.5 6.5zM417.44 323.2a1.1 1.1 0 1 1-1.1-1.1 1.11 1.11 0 0 1 1.1 1.1zm-2.1 8.6v-6.5h1.8v6.5zM423.74 331.8v-.7a2.42 2.42 0 0 1-1.9.8 3.08 3.08 0 0 1-3.1-3.4 3.13 3.13 0 0 1 3.1-3.4 2.32 2.32 0 0 1 1.8.7V322h1.8v9.7h-1.7zm-3.2-3.2c0 1.2.6 1.8 1.6 1.8s1.5-.6 1.5-1.7v-.3a1.53 1.53 0 0 0-1.5-1.7c-1 0-1.6.7-1.6 1.9zM429.44 329.3a.94.94 0 0 0 1 1 1.08 1.08 0 0 0 .6-.1v1.6c-.3 0-.5.1-1 .1-1.4 0-2.4-.7-2.3-2.2v-2.8h-1.2v-1.6h1.2v-2.1h1.8v2.1H431v1.6h-1.5zM434 325.9a1.87 1.87 0 0 1 1.6-.7 2.39 2.39 0 0 1 2.5 2.6v4h-1.8v-3.6c0-.8-.4-1.3-1.1-1.3a1.18 1.18 0 0 0-1.2 1.3v3.6h-1.8v-9.7h1.8z" class="cls-2"/><g opacity=".5"><path d="M138.64 105.2h276.5M138.64 160.9h276.5M138.64 216.6h276.5M138.64 272.3h276.5" class="cls-11"/><path d="M98.64 270.4c0 1.9-.9 2.9-2.2 2.9s-2.2-1-2.2-2.9.9-2.9 2.2-2.9 2.2 1.1 2.2 2.9zm-3.1 0c0 1.2.3 1.9 1 1.9s1-.7 1-1.9-.3-1.9-1-1.9-1 .7-1 1.9zM100.64 272.7a.7.7 0 1 1-.7-.7.68.68 0 0 1 .7.7zM105.54 270.4c0 1.9-.9 2.9-2.2 2.9s-2.2-1-2.2-2.9.9-2.9 2.2-2.9 2.2 1.1 2.2 2.9zm-3.1 0c0 1.2.3 1.9 1 1.9s1-.7 1-1.9-.3-1.9-1-1.9-1 .7-1 1.9zM110.54 270.4c0 1.9-.9 2.9-2.2 2.9s-2.2-1-2.2-2.9.9-2.9 2.2-2.9 2.2 1.1 2.2 2.9zm-3.1 0c0 1.2.3 1.9 1 1.9s1-.7 1-1.9-.3-1.9-1-1.9-1 .7-1 1.9zM118.24 273.3v-3.1l-1.6 3h-.8l-1.6-3v3.1H113v-5.7h1l2.1 3.9 2.1-3.9h1v5.7zM122.94 267.6c1 0 1.8.5 1.8 1.6a1.15 1.15 0 0 1-.6 1.1 1.39 1.39 0 0 1 .8 1.3 1.65 1.65 0 0 1-1.8 1.7h-2.6v-5.7zm-1.2 2.3h1.1c.4 0 .7-.2.7-.6s-.3-.6-.7-.6h-1.1zm0 2.4h1.2c.5 0 .8-.2.8-.7s-.3-.7-.8-.7h-1.3v1.4zM130 271.3a2 2 0 0 1-1.9 2.1 1.6 1.6 0 0 1-1.1-.4v2.3h-1.1v-5.9h1.1v.4a1.36 1.36 0 0 1 1.2-.5 1.85 1.85 0 0 1 1.8 2zm-3-.1v.2a.92.92 0 0 0 .9 1 1.11 1.11 0 0 0 0-2.2c-.56 0-.9.4-.9 1zM133.84 270.6l-1.1.1a.47.47 0 0 0-.5-.5c-.3 0-.4.1-.4.3s.3.3.8.4c.8.2 1.3.5 1.3 1.2s-.6 1.3-1.6 1.3a1.51 1.51 0 0 1-1.7-1.3l1.1-.1c0 .3.2.5.6.5s.5-.1.5-.4-.1-.3-.7-.5c-.8-.2-1.4-.4-1.4-1.2s.6-1.2 1.6-1.2a1.52 1.52 0 0 1 1.5 1.4zM98.64 215.3c0 1.9-.9 2.9-2.2 2.9s-2.2-1-2.2-2.9.9-2.9 2.2-2.9 2.2 1 2.2 2.9zm-3.1 0c0 1.2.3 1.9 1 1.9s1-.7 1-1.9-.3-1.9-1-1.9-1 .7-1 1.9zM100.64 217.6a.7.7 0 1 1-.7-.7.68.68 0 0 1 .7.7zM104.84 214a1.41 1.41 0 0 1-.6 1.2 1.33 1.33 0 0 1 .7 1.3 1.76 1.76 0 0 1-1.9 1.8 1.69 1.69 0 0 1-1.9-1.7l1.2-.1a.71.71 0 1 0 1.4 0c0-.5-.3-.7-.8-.7h-.6v-1h.6a.63.63 0 0 0 .7-.7.53.53 0 0 0-.6-.6c-.4 0-.6.3-.6.7l-1.2-.1a1.66 1.66 0 0 1 1.8-1.7 1.58 1.58 0 0 1 1.8 1.6zM106.94 218.2h-1.3l2.2-4.7h-2.5v-1H109v.9zM116.74 218.2v-3.1l-1.6 3h-.8l-1.6-3v3.1h-1.1v-5.7h1l2.1 3.9 2.1-3.9h1v5.7zM121.44 212.5c1 0 1.8.5 1.8 1.6a1.15 1.15 0 0 1-.6 1.1 1.39 1.39 0 0 1 .8 1.3 1.65 1.65 0 0 1-1.8 1.7H119v-5.7h2.4zm-1.2 2.3h1.1c.4 0 .7-.2.7-.6s-.3-.6-.7-.6h-1.1zm0 2.3h1.2c.5 0 .8-.2.8-.7s-.3-.7-.8-.7h-1.3v1.4zM128.54 216.2a2 2 0 0 1-1.9 2.1 1.6 1.6 0 0 1-1.1-.4v2.3h-1.1v-5.9h1.1v.4a1.36 1.36 0 0 1 1.2-.5 1.79 1.79 0 0 1 1.8 2zm-3-.1v.2a.92.92 0 0 0 .9 1 1.11 1.11 0 0 0 0-2.2.92.92 0 0 0-.9 1zM132.34 215.4l-1.1.1a.47.47 0 0 0-.5-.5c-.3 0-.4.1-.4.3s.3.3.8.4c.8.2 1.3.5 1.3 1.2s-.6 1.3-1.6 1.3a1.51 1.51 0 0 1-1.7-1.3l1.1-.1c0 .3.2.5.6.5s.5-.1.5-.4-.1-.3-.7-.5c-.8-.2-1.4-.4-1.4-1.2s.6-1.2 1.6-1.2a1.61 1.61 0 0 1 1.5 1.4zM98.64 159.3c0 1.9-.9 2.9-2.2 2.9s-2.2-1-2.2-2.9.9-2.9 2.2-2.9 2.2 1 2.2 2.9zm-3.1 0c0 1.2.3 1.9 1 1.9s1-.7 1-1.9-.3-1.9-1-1.9-1 .7-1 1.9zM100.64 161.6a.7.7 0 1 1-.7-.7.68.68 0 0 1 .7.7zM102.64 162.2h-1.3l2.2-4.7H101v-1h3.7v.9zM108.94 158.1a1.41 1.41 0 0 1-.6 1.2 1.33 1.33 0 0 1 .7 1.3 1.76 1.76 0 0 1-1.9 1.8 1.69 1.69 0 0 1-1.9-1.7l1.2-.1a.71.71 0 1 0 1.4 0c0-.5-.3-.7-.8-.7h-.6v-1h.6a.63.63 0 0 0 .7-.7.53.53 0 0 0-.6-.6c-.4 0-.6.3-.6.7l-1.2-.1a1.66 1.66 0 0 1 1.8-1.7 1.5 1.5 0 0 1 1.8 1.6zM116.74 162.2v-3.1l-1.6 3h-.8l-1.6-3v3.1h-1.1v-5.7h1l2.1 3.9 2.1-3.9h1v5.7zM121.44 156.5c1 0 1.8.5 1.8 1.6a1.15 1.15 0 0 1-.6 1.1 1.39 1.39 0 0 1 .8 1.3 1.65 1.65 0 0 1-1.8 1.7H119v-5.7h2.4zm-1.2 2.3h1.1c.4 0 .7-.2.7-.6s-.3-.6-.7-.6h-1.1zm0 2.4h1.2c.5 0 .8-.2.8-.7s-.3-.7-.8-.7h-1.3v1.4zM128.54 160.2a2 2 0 0 1-1.9 2.1 1.6 1.6 0 0 1-1.1-.4v2.3h-1.1v-5.9h1.1v.4a1.36 1.36 0 0 1 1.2-.5 1.85 1.85 0 0 1 1.8 2zm-3-.1v.2a.92.92 0 0 0 .9 1 1.11 1.11 0 0 0 0-2.2.92.92 0 0 0-.9 1zM132.34 159.4l-1.1.1a.47.47 0 0 0-.5-.5c-.3 0-.4.1-.4.3s.3.3.8.4c.8.2 1.3.5 1.3 1.2s-.6 1.3-1.6 1.3a1.51 1.51 0 0 1-1.7-1.3l1.1-.1c0 .3.2.5.6.5s.5-.1.5-.4-.1-.3-.7-.5c-.8-.2-1.4-.4-1.4-1.2s.6-1.2 1.6-1.2a1.7 1.7 0 0 1 1.5 1.4zM95.24 106.2V102l-.7.5-.5-.9 1.6-1.1h.9v5.7zM98.64 105.6a.7.7 0 1 1-.7-.7.75.75 0 0 1 .7.7zM103.64 103.4c0 1.9-.9 2.9-2.2 2.9s-2.2-1-2.2-2.9.9-2.9 2.2-2.9 2.2 1 2.2 2.9zm-3.2 0c0 1.2.3 1.9 1 1.9s1-.7 1-1.9-.3-1.9-1-1.9-1 .6-1 1.9zM108.54 103.4c0 1.9-.9 2.9-2.2 2.9s-2.2-1-2.2-2.9.9-2.9 2.2-2.9 2.2 1 2.2 2.9zm-3.1 0c0 1.2.3 1.9 1 1.9s1-.7 1-1.9-.3-1.9-1-1.9-1 .6-1 1.9zM116.24 106.2v-3.1l-1.6 3h-.8l-1.6-3v3.1H111v-5.7h1l2.1 3.9 2.1-3.9h1v5.7zM120.94 100.5c1 0 1.8.5 1.8 1.6a1.15 1.15 0 0 1-.6 1.1 1.39 1.39 0 0 1 .8 1.3 1.65 1.65 0 0 1-1.8 1.7h-2.6v-5.7zm-1.2 2.3h1.1c.4 0 .7-.2.7-.6s-.3-.6-.7-.6h-1.1zm0 2.4h1.2c.5 0 .8-.2.8-.7s-.3-.7-.8-.7h-1.3v1.4zM128 104.3a2 2 0 0 1-1.9 2.1 1.6 1.6 0 0 1-1.1-.4v2.3h-1.1v-5.9h1.1v.4a1.36 1.36 0 0 1 1.2-.5c1.04-.1 1.8.7 1.8 2zm-3-.1v.2a.92.92 0 0 0 .9 1 1.1 1.1 0 0 0 0-2.2.87.87 0 0 0-.9 1zM131.84 103.5l-1.1.1a.47.47 0 0 0-.5-.5c-.3 0-.4.1-.4.3s.3.3.8.4c.8.2 1.3.5 1.3 1.2s-.6 1.3-1.6 1.3a1.51 1.51 0 0 1-1.7-1.3l1.1-.1c0 .3.2.5.6.5s.5-.1.5-.4-.1-.3-.7-.5c-.8-.2-1.4-.4-1.4-1.2s.6-1.2 1.6-1.2 1.5.6 1.5 1.4z" class="cls-9"/></g><path fill="url(#linear-gradient-3)" d="M225.94 231l-10.1-10.1a3.68 3.68 0 0 0-5.3 0L182 249.5a3.68 3.68 0 0 1-5.3 0l-1.1-1.1a3.68 3.68 0 0 0-5.3 0l-10.9 10.9a3.73 3.73 0 0 0 2.7 6.4l157.1-1.2a3.71 3.71 0 0 0 3.7-3.8V148.6a3.77 3.77 0 0 0-6.4-2.7l-85 85a4 4 0 0 1-5.56.1z"/><path fill="none" stroke="#0069ff" stroke-miterlimit="10" stroke-width="1.5" d="M152.74 265.8l17.5-17.5a3.68 3.68 0 0 1 5.3 0l1.1 1.1a3.68 3.68 0 0 0 5.3 0l28.5-28.6a3.68 3.68 0 0 1 5.3 0l10.1 10.1a3.68 3.68 0 0 0 5.3 0l85-85a3.74 3.74 0 0 1 6.4 2.7v110.5a3.8 3.8 0 0 0 3.8 3.8h87.3"/><circle cx="322.74" cy="127.6" r="36.8" fill="url(#linear-gradient-4)"/><circle cx="322.74" cy="127.6" r="16.6" fill="url(#linear-gradient-5)"/><circle cx="322.74" cy="127.6" r="3.9" fill="#120078"/><path fill="none" stroke="#0069ff" stroke-dasharray="0 5.5" stroke-linecap="round" stroke-miterlimit="10" stroke-width="2" d="M322.74 116.6V46.9"/><path fill="url(#linear-gradient-6)" d="M355.14 42.7h-32.7a.94.94 0 0 1-1-1v-8.3a.94.94 0 0 1 1-1h32.7a.94.94 0 0 1 1 1v8.3a1 1 0 0 1-1 1z"/></svg>
